<?xml version="1.0" standalone="no"?>
<!DOCTYPE svg PUBLIC "-//W3C//DTD SVG 1.1//EN" "http://www.w3.org/Graphics/SVG/1.1/DTD/svg11.dtd" >
<svg xmlns="http://www.w3.org/2000/svg" xmlns:xlink="http://www.w3.org/1999/xlink" version="1.1">
<metadata></metadata>
<defs>
<font id="maitreesemibold" horiz-adv-x="1456" >
<font-face units-per-em="2048" ascent="1536" descent="-512" />
<missing-glyph horiz-adv-x="565" />
<glyph horiz-adv-x="1024" />
<glyph horiz-adv-x="1024" />
<glyph unicode="&#xd;" horiz-adv-x="565" />
<glyph unicode=" "  horiz-adv-x="565" />
<glyph unicode="&#x09;" horiz-adv-x="565" />
<glyph unicode="&#xa0;" horiz-adv-x="565" />
<glyph unicode="!" horiz-adv-x="688" d="M205 1452h276l-63 -1116h-148zM225 92q0 53 34 87t85 34t86 -34t35 -87t-35 -87t-86 -34t-85 34t-34 87z" />
<glyph unicode="&#x22;" horiz-adv-x="835" d="M63 883l87 571l231 -20l-139 -551h-179zM455 883l84 571l233 -20l-141 -551h-176z" />
<glyph unicode="#" horiz-adv-x="1280" d="M43 311v164h217l49 266h-192v164h223l53 287h213l-53 -287h254l53 287h213l-53 -287h186v-164h-217l-51 -266h199v-164h-230l-57 -311h-211l57 311h-256l-57 -311h-211l57 311h-186zM471 475h256l49 266h-254z" />
<glyph unicode="$" horiz-adv-x="1409" d="M135 96v307q0 18 10.5 30.5t32.5 12.5q33 0 51.5 -24.5t40.5 -97.5l35 -119q45 -33 130 -52.5t171 -19.5q127 0 214 45t87 144q0 66 -31.5 111.5t-99 86.5t-203.5 101q-137 61 -227 118.5t-147.5 137t-57.5 188.5q0 162 115 254t291 108v170h190v-174q102 -14 194.5 -49 t155.5 -86v-284q0 -18 -10 -30.5t-28 -12.5q-35 0 -56.5 24.5t-40.5 95.5l-32 121q-106 68 -277 68q-111 0 -179.5 -44t-68.5 -132q0 -59 38 -102.5t101.5 -78t198.5 -96.5q8 -4 19.5 -9t25.5 -11q127 -57 208 -113.5t128 -137.5t47 -198q0 -170 -120.5 -263t-319.5 -110 v-165h-191v167q-109 10 -217 43t-178 76z" />
<glyph unicode="%" horiz-adv-x="1757" d="M94 1096q0 156 87 246t233 90q147 0 234 -90.5t87 -245.5q0 -156 -87 -248t-234 -92q-146 0 -233 92t-87 248zM285 1096q0 -98 35.5 -143.5t93.5 -45.5q57 0 93 45t36 144q0 96 -36 141t-93 45t-93 -45t-36 -141zM309 92l944 1340l187 -125l-951 -1334zM1022 311 q0 156 87 246t232 90q147 0 234.5 -90t87.5 -246t-87 -248t-235 -92q-145 0 -232 92.5t-87 247.5zM1214 311q0 -96 36 -142t93 -46q58 0 94 46t36 142t-36 142.5t-94 46.5q-57 0 -93 -46t-36 -143z" />
<glyph unicode="&#x26;" horiz-adv-x="1501" d="M74 356q0 256 291 379q-88 86 -134.5 167t-46.5 177q0 100 54.5 175t146.5 114t205 39q123 0 215 -45t141 -121t49 -168q0 -119 -73.5 -202t-214.5 -142l327 -317q33 49 50.5 106t29.5 133h-108q-49 0 -50 62q0 43 31 64.5t82 21.5h375q31 0 31 -35q0 -27 -15.5 -44.5 t-46.5 -27.5l-149 -49q-27 -188 -125 -330l174 -170l102 -30q43 -14 62.5 -32t19.5 -44q0 -18 -7 -27.5t-26 -9.5h-358l-125 125q-74 -70 -179.5 -112t-232.5 -42q-137 0 -249.5 47.5t-179 134.5t-66.5 203zM322 360q0 -115 79.5 -177t198.5 -62q158 0 279 106l-404 387 q-154 -92 -153 -254zM432 1098q0 -127 152 -260q170 87 170 245q0 82 -44 129.5t-116 47.5q-74 0 -118 -41t-44 -121z" />
<glyph unicode="'" horiz-adv-x="444" d="M63 883l87 571l231 -20l-139 -551h-179z" />
<glyph unicode="(" horiz-adv-x="659" d="M88 717q0 244 69.5 464t190.5 406h223q-109 -213 -168 -419.5t-59 -450.5q0 -246 59.5 -457t167.5 -422h-223q-121 187 -190.5 410t-69.5 469z" />
<glyph unicode=")" horiz-adv-x="659" d="M88 -162q109 211 168 422t59 457q0 244 -59 450.5t-168 419.5h223q121 -186 190.5 -406t69.5 -464q0 -246 -69.5 -469t-190.5 -410h-223z" />
<glyph unicode="*" horiz-adv-x="847" d="M53 1049l273 86l-273 84l94 200l230 -188l-64 270h222l-62 -270l207 188l111 -196l-269 -88l273 -91l-119 -194l-211 186l63 -270h-215l64 270l-213 -178z" />
<glyph unicode="+" horiz-adv-x="1224" d="M109 580v196h378v395h252v-395h379v-196h-379v-383h-252v383h-378z" />
<glyph unicode="," horiz-adv-x="679" d="M125 -250q49 70 96 172.5t53 163.5l-65 20q-20 8 -30.5 20.5t-10.5 33.5q0 37 22.5 58.5t61.5 21.5q10 0 35 -4l237 -54q-31 -115 -105.5 -262t-164.5 -248z" />
<glyph unicode="-" horiz-adv-x="694" d="M39 528v199h616v-199h-616z" />
<glyph unicode="." horiz-adv-x="559" d="M135 117q0 61 42 103t104 42q59 0 101 -42t42 -103t-42 -103.5t-101 -42.5q-62 0 -104 42t-42 104z" />
<glyph unicode="/" horiz-adv-x="802" d="M-70 -188l707 1740l225 -86l-708 -1740z" />
<glyph unicode="0" horiz-adv-x="1482" d="M104 700q0 207 73 373t216.5 262.5t347.5 96.5q205 0 348.5 -96.5t216 -262.5t72.5 -373t-72.5 -371.5t-216 -261t-348.5 -96.5q-204 0 -347.5 96.5t-216.5 261.5t-73 371zM360 700q0 -264 99.5 -415.5t281.5 -151.5q181 0 280 151.5t99 415.5t-99 417t-280 153 q-182 0 -281.5 -152.5t-99.5 -417.5z" />
<glyph unicode="1" horiz-adv-x="925" d="M96 1249q0 41 22.5 64.5t69.5 38.5l162 51h246v-1256l127 -28q49 -12 69.5 -30.5t20.5 -47.5q0 -41 -35 -41h-622q-25 0 -38.5 16.5t-13.5 44.5q0 43 31 66t84 23h121v1097l-188 -57q-25 0 -40.5 15.5t-15.5 43.5z" />
<glyph unicode="2" horiz-adv-x="1210" d="M119 0v195l463 467q113 115 171 205.5t58 187.5q0 102 -63.5 153.5t-165.5 51.5q-66 0 -132.5 -17.5t-121.5 -44.5l-35 -121q-23 -74 -42.5 -98.5t-51.5 -24.5q-43 0 -43 41v291q240 137 473 137q213 0 329.5 -97t116.5 -290q0 -125 -75.5 -251t-227.5 -277l-336 -338v-8 h662v-162h-979z" />
<glyph unicode="3" horiz-adv-x="1214" d="M98 59v168q92 -39 206 -62.5t214 -23.5q160 0 235.5 69t75.5 191q0 102 -75.5 171t-198.5 69q-66 0 -217 -25v162l156 21q137 16 211.5 79.5t74.5 170.5q0 102 -64.5 156.5t-172.5 54.5q-129 0 -256 -62l-35 -121q-23 -74 -42.5 -98.5t-51.5 -24.5q-43 0 -43 41v291 q113 63 236.5 100t244.5 37q190 0 315 -86t125 -256q0 -129 -78.5 -219t-218.5 -129q156 -25 251 -118t95 -236q0 -125 -70.5 -215t-195.5 -137t-282 -47q-119 0 -239 22.5t-200 56.5z" />
<glyph unicode="4" horiz-adv-x="1318" d="M63 299v160l670 944h297v-942h187v-162h-187v-299h-254v299h-713zM272 461h502v710z" />
<glyph unicode="5" horiz-adv-x="1134" d="M84 57v166q82 -35 185.5 -58.5t199.5 -23.5q145 0 236.5 67.5t91.5 209.5q0 141 -82 212.5t-217 71.5q-66 0 -124.5 -9t-142.5 -29l-110 100l53 639h766v-162h-524l-33 -405q115 29 223 28q197 0 321 -112.5t124 -315.5q0 -231 -156 -343.5t-393 -112.5q-221 -1 -418 77z " />
<glyph unicode="6" horiz-adv-x="1241" d="M104 670q0 217 79 388t234.5 268t375.5 97q68 0 172 -22v-158q-76 18 -168 19q-127 0 -226.5 -57.5t-156 -169t-56.5 -269.5q154 94 320 94q215 0 338 -115.5t123 -304.5q0 -145 -65.5 -248.5t-178.5 -157.5t-252 -54q-264 0 -401.5 183t-137.5 507zM360 600 q0 -217 70 -338t205 -121q119 0 183.5 84t64.5 207q0 131 -65.5 198.5t-186.5 67.5q-66 0 -138.5 -27.5t-132.5 -70.5z" />
<glyph unicode="7" horiz-adv-x="1175" d="M84 1110v293h1008v-141l-506 -1262h-283l508 1241h-578l-24 -88q-25 -86 -82 -86q-43 0 -43 43z" />
<glyph unicode="8" horiz-adv-x="1327" d="M125 365q0 113 82 209t229 159q-131 72 -192.5 156t-61.5 192q0 98 60.5 177t171 124t256.5 45q143 0 249.5 -45t163 -122.5t56.5 -178.5q0 -102 -59.5 -183t-186.5 -159q309 -141 309 -364q0 -121 -69.5 -211t-193.5 -139.5t-280 -49.5q-155 0 -276 46.5t-189.5 134.5 t-68.5 209zM371 358q0 -102 80.5 -161.5t203.5 -59.5t203 60.5t80 162.5q0 160 -283 279q-285 -117 -284 -281zM442 1081q0 -76 59.5 -133t170.5 -110q108 49 167.5 108.5t59.5 134.5q0 88 -64.5 136.5t-164.5 48.5q-96 0 -162 -49.5t-66 -135.5z" />
<glyph unicode="9" horiz-adv-x="1241" d="M104 946q0 145 67 254t180.5 166t254.5 57q264 0 398.5 -178t134.5 -512q0 -215 -76 -386t-225.5 -269t-360.5 -98q-55 0 -115.5 8t-99.5 20v158q96 -25 189 -25q188 0 308 115t126 342q-66 -43 -147 -69.5t-165 -26.5q-141 0 -247.5 57t-164 158.5t-57.5 228.5zM360 954 q0 -135 70 -212.5t186 -77.5q68 0 137.5 28.5t129.5 75.5q0 231 -67.5 362.5t-201.5 131.5q-123 0 -188.5 -87.5t-65.5 -220.5z" />
<glyph unicode=":" horiz-adv-x="598" d="M135 182q0 72 47 118t117 46q72 0 119 -45t47 -119t-47 -119t-119 -45q-70 0 -117 46.5t-47 117.5zM135 920q0 72 47 117.5t117 45.5q72 0 119 -45t47 -118q0 -74 -47 -119t-119 -45q-70 0 -117 46t-47 118z" />
<glyph unicode=";" horiz-adv-x="602" d="M78 -233q49 66 96 163t53 156l-65 20q-20 8 -30.5 20.5t-10.5 33.5q0 37 22.5 58.5t61.5 21.5q10 0 35 -4l237 -54q-29 -106 -108.5 -253.5t-161.5 -239.5zM150 920q0 72 47 117.5t116 45.5q72 0 119 -45t47 -118q0 -74 -47 -119t-119 -45q-69 0 -116 46t-47 118z" />
<glyph unicode="&#x3c;" horiz-adv-x="1165" d="M115 535v194l819 469l96 -184l-676 -383l676 -381l-96 -184z" />
<glyph unicode="=" horiz-adv-x="1126" d="M109 360v189h909v-189h-909zM109 754v188h909v-188h-909z" />
<glyph unicode="&#x3e;" horiz-adv-x="1165" d="M135 250l676 381l-676 383l96 184l820 -469v-194l-820 -469z" />
<glyph unicode="?" horiz-adv-x="989" d="M145 1137v211q61 51 162 88t209 37q178 0 279.5 -86.5t101.5 -225.5q0 -104 -42 -175t-120 -152q-59 -63 -86.5 -101.5t-41 -85.5t-13.5 -121v-190h-207v231q0 102 39 171t125 159q57 59 89 117.5t32 132.5q0 78 -48.5 127t-131.5 49q-117 0 -201 -53l-23 -92 q-10 -39 -28.5 -58.5t-49.5 -19.5q-23 0 -34 10t-11 27zM373 92q0 53 33.5 87t85.5 34q51 0 85.5 -34t34.5 -87t-34.5 -87t-85.5 -34q-52 0 -85.5 34t-33.5 87z" />
<glyph unicode="@" horiz-adv-x="1763" d="M88 571q0 258 107.5 464t303 322t451.5 116q227 0 401.5 -90.5t271.5 -258.5t97 -393q0 -143 -46 -264t-129 -192.5t-185 -71.5q-70 0 -130.5 33.5t-94.5 95.5q-59 -61 -130 -95t-145 -34q-164 0 -260 101.5t-96 297.5q0 139 53 249t153.5 170t233.5 60q137 0 336 -57 l-35 -520q-4 -63 31 -98t86 -35q78 0 129 100t51 262q0 170 -72.5 300t-202.5 201t-296 71q-211 0 -371 -90.5t-246 -254t-86 -382.5q0 -285 161 -443t439 -158q203 0 461 97v-178q-254 -88 -461 -89q-237 0 -413 89.5t-271.5 261.5t-95.5 413zM686 598q0 -113 45 -170 t131 -57q125 -1 203 108l29 418q-80 14 -148 14q-119 0 -189.5 -84t-70.5 -229z" />
<glyph unicode="A" horiz-adv-x="1536" d="M2 61q0 43 30.5 64.5t82.5 21.5h35l475 1276h278l475 -1276l78 -26q41 -14 59.5 -31.5t18.5 -44.5q0 -45 -31 -45h-512q-49 0 -49 61q0 43 31 64.5t82 21.5h65l-104 281h-572l-102 -281l113 -34q47 -14 65.5 -30.5t18.5 -43.5q0 -39 -31 -39h-455q-24 0 -37.5 16.5 t-13.5 44.5zM504 592h450l-223 616z" />
<glyph unicode="B" horiz-adv-x="1470" d="M104 51q0 39 27 62.5t88 38.5l41 10v1100l-41 10q-61 16 -88 38.5t-27 61.5q0 51 39 51h666q231 0 355 -102t124 -281q0 -98 -53 -175t-150 -115v-9q135 -39 209 -130t74 -214q0 -188 -131 -292.5t-352 -104.5h-742q-39 0 -39 51zM516 160h334q129 0 195.5 63.5 t66.5 177.5q0 115 -66.5 182.5t-189.5 67.5h-340v-491zM516 809h295q102 0 161.5 62.5t59.5 162.5q0 104 -61.5 167t-173.5 63h-281v-455z" />
<glyph unicode="C" horiz-adv-x="1368" d="M82 715q0 236 95 402.5t252 250.5t343 84q154 0 278 -43t207 -113v-272q0 -45 -45 -45q-33 0 -51 23.5t-33 78.5l-38 142q-43 27 -115 46t-158 19q-139 0 -246.5 -65.5t-168 -194.5t-60.5 -313q0 -186 63.5 -316.5t174 -197t249.5 -66.5q98 0 168 16.5t138 63.5 q51 35 71 35q27 0 47.5 -21.5t20.5 -52.5q0 -55 -70 -102q-66 -43 -169 -73t-240 -30q-201 0 -363 84t-256 252t-94 408z" />
<glyph unicode="D" horiz-adv-x="1556" d="M104 51q0 39 27 62.5t88 38.5l41 10v1100l-41 10q-61 16 -88 38.5t-27 61.5q0 51 39 51h635q197 0 353.5 -77.5t249 -237.5t92.5 -399q0 -240 -92.5 -398.5t-248 -234.5t-354.5 -76h-635q-39 0 -39 51zM516 164h262q211 0 323.5 143.5t112.5 401.5q0 260 -113.5 405.5 t-322.5 145.5h-262v-1096z" />
<glyph unicode="E" d="M104 51q0 39 27 62.5t88 38.5l41 10v1100l-41 10q-61 16 -88 38.5t-27 61.5q0 51 39 51h1155v-319q0 -41 -41 -41q-27 0 -46 28.5t-37 94.5l-23 78h-635v-457h508l31 80q27 69 62 69h1q18 0 27.5 -10t9.5 -26v-383q0 -37 -37 -37q-18 0 -32.5 16t-30.5 53l-31 80h-508 v-489h664l22 80q18 66 38 94t46 28q23 0 32 -10t9 -30v-322h-1184q-39 0 -39 51z" />
<glyph unicode="F" horiz-adv-x="1370" d="M104 1372q0 51 39 51h1108v-323q0 -41 -41 -41q-27 0 -46 27.5t-38 93.5l-22 80h-588v-496h461l31 80q27 69 60 69h1q39 0 39 -34v-394q0 -16 -9 -26t-30 -10q-35 0 -61 69l-31 82h-461v-453l86 -32q45 -16 61.5 -34t16.5 -46q0 -16 -7 -25.5t-28 -9.5h-483 q-25 0 -38 16.5t-13 44.5q0 43 30.5 64.5t83.5 21.5h35v1115l-41 10q-61 14 -88 37.5t-27 62.5z" />
<glyph unicode="G" horiz-adv-x="1505" d="M88 715q0 236 93 402.5t250 250.5t345 84q154 0 279 -43t209 -113v-272q0 -45 -45 -45q-33 0 -51.5 23.5t-32.5 78.5l-39 142q-43 27 -115 46t-158 19q-217 0 -346 -148.5t-129 -424.5q0 -186 62.5 -316.5t171 -197t247.5 -66.5q111 0 193 35v403h-166q-25 0 -37 16.5 t-12 45.5q0 43 30.5 64.5t82.5 21.5h481q31 0 31 -35q0 -27 -16.5 -44t-57.5 -34l-80 -33v-503q-94 -49 -216 -75t-241 -26q-205 0 -370.5 81t-264 248t-98.5 415z" />
<glyph unicode="H" horiz-adv-x="1701" d="M104 61q0 43 31 65t84 21h35v1129h-98q-25 0 -38.5 16.5t-13.5 44.5q0 43 31 65t82 21h422q20 0 27.5 -9t7.5 -25q0 -27 -18.5 -45.5t-59.5 -34.5l-86 -33v-455h678v455h-109q-25 0 -38 16.5t-13 44.5q0 43 31 65t82 21h424q33 0 32 -34q0 -27 -15 -42.5t-48 -29.5 l-90 -41v-1129l90 -41q33 -14 48 -29.5t15 -41.5q0 -35 -32 -35h-486q-25 0 -38 16.5t-13 44.5q0 43 31 65t82 21h47v510h-678v-510l86 -32q43 -16 60.5 -35t17.5 -45q0 -16 -7.5 -25.5t-27.5 -9.5h-483q-25 0 -38.5 16.5t-13.5 44.5z" />
<glyph unicode="I" horiz-adv-x="798" d="M115 61q0 43 30.5 65t83.5 21h35v1129h-98q-25 0 -38 16.5t-13 44.5q0 43 30.5 65t81.5 21h422q20 0 27.5 -9t7.5 -25q0 -27 -18.5 -45.5t-59.5 -34.5l-86 -33v-1129l86 -32q43 -16 60.5 -35t17.5 -45q0 -16 -7 -25.5t-28 -9.5h-483q-25 0 -38 16.5t-13 44.5z" />
<glyph unicode="J" horiz-adv-x="884" d="M63 143q117 41 186.5 88.5t103.5 120t34 183.5v741h-131q-25 0 -38 16.5t-13 44.5q0 43 30.5 64.5t81.5 21.5h455q35 0 35 -34q0 -27 -18.5 -45.5t-59.5 -34.5l-86 -33v-758q0 -197 -77 -317.5t-191 -184.5q-84 -45 -168 -45q-62 0 -100.5 41t-43.5 131z" />
<glyph unicode="K" horiz-adv-x="1503" d="M104 61q0 43 31 64.5t84 21.5h35v1129h-98q-25 0 -38.5 16.5t-13.5 44.5q0 43 31 65t82 21h420q14 0 23.5 -9t9.5 -25q0 -29 -16.5 -47.5t-57.5 -32.5l-86 -33v-1129l86 -32q41 -16 59.5 -35t18.5 -45q0 -16 -9.5 -25.5t-25.5 -9.5h-483q-25 0 -38.5 16.5t-13.5 44.5z M510 709l565 567h-125q-25 0 -38 16.5t-13 44.5q0 43 31 65t82 21h409q41 0 41 -49q0 -53 -86 -78l-69 -18l-525 -530l533 -607l98 -28q45 -14 64.5 -32t19.5 -44q0 -37 -35 -37h-368z" />
<glyph unicode="L" horiz-adv-x="1286" d="M104 51q0 39 27 62.5t88 38.5l41 10v1114h-98q-25 0 -38 16.5t-13 44.5q0 43 30.5 65t81.5 21h439q35 0 34 -34q0 -29 -17 -47.5t-61 -32.5l-102 -33v-1112h582l41 129q23 68 40 94.5t44 26.5q41 0 41 -41v-373h-1121q-39 0 -39 51z" />
<glyph unicode="M" horiz-adv-x="2199" d="M41 61q0 43 30.5 64.5t84.5 21.5h34l218 1115l-41 10q-59 16 -87 39.5t-28 60.5q0 51 41 51h479l277 -962q18 -63 30.5 -159.5t14.5 -127.5h10q2 31 14 127t29 160l256 962h481q16 0 27.5 -12t11.5 -39q0 -39 -26.5 -61.5t-88.5 -38.5l-41 -10l242 -1112l78 -29 q41 -16 59.5 -32.5t18.5 -43.5q0 -45 -31 -45h-512q-25 0 -38 16.5t-13 44.5q0 43 30.5 64.5t84.5 21.5h73l-198 945q-8 39 -14.5 90t-6.5 67h-8q-2 -16 -10.5 -61t-20.5 -96l-289 -1092h-282l-320 1092q-10 39 -18 90t-10 67h-9q0 -16 -5 -67.5t-11 -89.5l-178 -945 l113 -34q51 -16 67 -31.5t16 -42.5q0 -39 -30 -39h-453q-24 0 -37.5 16.5t-13.5 44.5z" />
<glyph unicode="N" horiz-adv-x="1660" d="M104 61q0 43 31 65t84 21h35v1117l-41 10q-61 14 -85 36.5t-24 61.5q0 27 11.5 39t27.5 12h346l596 -858q66 -96 125 -250v961h-116q-25 0 -38.5 16.5t-13.5 44.5q0 43 31 65t82 21h375q33 0 33 -34q0 -41 -88 -80l-74 -33v-1276h-236l-618 893q-31 45 -53.5 91 t-49.5 122v-959l103 -34q43 -14 60.5 -32t17.5 -46q0 -35 -33 -35h-436q-25 0 -38.5 16.5t-13.5 44.5z" />
<glyph unicode="O" horiz-adv-x="1548" d="M88 711q0 246 89 412.5t243.5 247.5t353.5 81t353.5 -81t243.5 -248t89 -412q0 -248 -89 -414t-243.5 -246t-353.5 -80t-353.5 80t-243.5 246t-89 414zM348 711q0 -279 109.5 -427.5t316.5 -148.5q209 0 317.5 148.5t108.5 427.5t-108.5 428t-317.5 149 q-207 0 -316.5 -149.5t-109.5 -427.5z" />
<glyph unicode="P" horiz-adv-x="1327" d="M104 1372q0 51 39 51h643q147 0 259 -52t174.5 -149.5t62.5 -230.5q0 -201 -136 -317.5t-360 -116.5h-270v-410l90 -32q49 -16 69.5 -35t20.5 -45q0 -35 -34 -35h-500q-25 0 -38 16.5t-13 44.5q0 43 30.5 65t83.5 21h35v1115l-41 10q-61 16 -88 38.5t-27 61.5zM516 721 h248q121 0 191.5 73.5t70.5 196.5q0 121 -70.5 195t-191.5 74h-248v-539z" />
<glyph unicode="Q" horiz-adv-x="1548" d="M88 711q0 246 89 412.5t243.5 247.5t353.5 81t353.5 -81t243.5 -248t89 -412q0 -332 -157.5 -516.5t-419.5 -217.5l55 -30q80 -45 180 -76q59 -18 83 -37.5t24 -58.5q0 -49 -31 -75t-84 -26q-135 1 -293 148q-70 61 -145 155q-266 29 -425 214.5t-159 519.5zM348 711 q0 -279 109.5 -427.5t316.5 -148.5q209 0 317.5 148.5t108.5 427.5t-108.5 428t-317.5 149q-207 0 -316.5 -149.5t-109.5 -427.5z" />
<glyph unicode="R" horiz-adv-x="1458" d="M104 1372q0 51 39 51h643q227 0 359.5 -104.5t132.5 -300.5q0 -186 -122 -286.5t-337 -108.5l430 -482l99 -28q45 -14 64.5 -32t19.5 -44q0 -37 -35 -37h-369l-512 618v-471l86 -32q41 -16 59.5 -35t18.5 -45q0 -16 -7 -25.5t-28 -9.5h-483q-25 0 -38 16.5t-13 44.5 q0 43 30.5 64.5t83.5 21.5h35v1125l-41 10q-59 14 -87 34.5t-28 55.5zM516 768h250q121 0 188.5 65.5t67.5 184.5t-67.5 185.5t-188.5 66.5h-250v-502z" />
<glyph unicode="S" horiz-adv-x="1224" d="M92 98v312q0 18 10.5 30.5t32.5 12.5q33 0 52.5 -26t41.5 -99l35 -121q47 -33 133 -52.5t172 -19.5q129 0 218.5 46t89.5 147q0 68 -32 113.5t-101.5 86.5t-206.5 101q-211 92 -325 192.5t-114 257.5q0 125 67.5 209t179.5 124t241 40q133 0 261 -40t212 -105v-289 q0 -43 -43 -43q-33 0 -52.5 24.5t-41.5 98.5l-35 121q-103 69 -276 69h-5q-113 0 -182.5 -44t-69.5 -134q0 -59 38 -102t103.5 -79t196.5 -95l53 -25q127 -59 209 -115.5t130.5 -139.5t48.5 -200q0 -193 -149.5 -288t-389.5 -95q-125 0 -270.5 36t-231.5 91z" />
<glyph unicode="T" horiz-adv-x="1294" d="M53 1100v323h1188v-323q0 -25 -13.5 -36t-33.5 -11q-31 0 -48.5 25.5t-33.5 80.5l-27 101h-309v-1113l86 -32q41 -16 59.5 -35t18.5 -45q0 -16 -7 -25.5t-28 -9.5h-483q-25 0 -38 16.5t-13 44.5q0 43 30.5 65t83.5 21h35v1113h-311l-27 -101q-16 -55 -33 -80.5t-47 -25.5 q-20 0 -34.5 11t-14.5 36z" />
<glyph unicode="U" horiz-adv-x="1652" d="M74 1337q0 43 30.5 65t81.5 21h422q20 0 27.5 -9t7.5 -25q0 -27 -18.5 -45.5t-59.5 -34.5l-86 -33v-754q0 -188 98.5 -287.5t272.5 -99.5q176 0 276.5 100.5t100.5 286.5v754h-115q-25 0 -38 16.5t-13 44.5q0 43 30.5 65t82.5 21h372q18 0 25.5 -7t7.5 -25q0 -39 -72 -74 l-80 -39v-729q0 -188 -74.5 -317.5t-207.5 -195t-307 -65.5q-179 0 -318 66.5t-218 197t-79 314.5v727h-98q-25 0 -38 16.5t-13 44.5z" />
<glyph unicode="V" horiz-adv-x="1572" d="M8 1337q0 43 31 65t82 21h465q33 0 32 -34q0 -31 -22.5 -51.5t-69.5 -32.5l-96 -29l340 -995q12 -37 19.5 -76t9.5 -49h10q0 10 7 49t22 76l360 995h-123q-49 0 -49 61q0 43 30.5 65t82.5 21h393q35 0 35 -34q0 -47 -70 -74l-102 -39l-471 -1276h-301l-465 1276h-99 q-25 0 -38 16.5t-13 44.5z" />
<glyph unicode="W" horiz-adv-x="2336" d="M10 1337q0 43 31 64.5t82 21.5h448q33 0 33 -34q0 -31 -22.5 -51.5t-69.5 -32.5l-96 -29l282 -944q12 -45 19.5 -96.5t9.5 -65.5h8q2 14 8.5 65.5t18.5 96.5l291 1091h266l319 -1091q12 -45 19.5 -96.5t9.5 -65.5h8q2 14 8.5 65.5t18.5 96.5l262 944h-133q-25 0 -38 16.5 t-13 44.5q0 41 30.5 63t83.5 23h398q35 0 35 -34q0 -47 -68 -74l-105 -39l-364 -1276h-307l-287 987q-14 53 -22.5 122t-8.5 89h-10q-2 -20 -10 -89t-21 -122l-264 -987h-307l-393 1276h-99q-25 0 -38 16.5t-13 44.5z" />
<glyph unicode="X" horiz-adv-x="1511" d="M16 61q0 43 31 64.5t82 21.5h61l396 572l-373 557h-96q-25 0 -38 16.5t-13 44.5q0 43 30.5 65t81.5 21h469q33 0 33 -34q0 -61 -92 -84l-74 -19l277 -407l282 397h-98q-25 0 -38 16.5t-13 44.5q0 43 30.5 65t81.5 21h375q33 0 33 -34q0 -47 -68 -74l-100 -39l-369 -518 l428 -621l68 -18q47 -12 69.5 -32.5t22.5 -51.5q0 -35 -35 -35h-575q-25 0 -38 16.5t-13 44.5q0 43 30.5 64.5t81.5 21.5h70l-311 453l-316 -450l109 -41q69 -27 69 -73q0 -36 -35 -36h-464q-25 0 -38.5 16.5t-13.5 44.5z" />
<glyph unicode="Y" horiz-adv-x="1472" d="M10 1337q0 43 31 64.5t82 21.5h487q35 0 35 -39q0 -33 -21.5 -51t-62.5 -30l-96 -27l307 -485l322 485h-103q-49 0 -49 61q0 43 31 64.5t82 21.5h375q33 0 32 -34q0 -47 -67 -74l-103 -39l-438 -658v-471l88 -32q41 -16 59.5 -35t18.5 -45q0 -16 -7 -25.5t-28 -9.5h-483 q-25 0 -38 16.5t-13 44.5q0 43 30.5 64.5t83.5 21.5h33v439l-440 690h-97q-25 0 -38 16.5t-13 44.5z" />
<glyph unicode="Z" horiz-adv-x="1304" d="M86 0v170l795 1090h-607l-26 -107q-12 -55 -30.5 -82t-49.5 -27q-49 0 -49 48v331h1073v-170l-793 -1089h660l26 108q12 53 31 80t49 27q20 0 34.5 -11.5t14.5 -35.5v-332h-1128z" />
<glyph unicode="[" horiz-adv-x="657" d="M111 -307v1888h462v-162h-223v-1562h223v-164h-462z" />
<glyph unicode="\" horiz-adv-x="794" d="M-70 1466l224 86l708 -1740l-223 -86z" />
<glyph unicode="]" horiz-adv-x="657" d="M84 -143h223v1562h-223v162h463v-1888h-463v164z" />
<glyph unicode="^" horiz-adv-x="1196" d="M115 731l409 660h148l407 -660l-184 -106l-297 489l-299 -489z" />
<glyph unicode="_" horiz-adv-x="997" d="M-31 -242h1059v-196h-1059v196z" />
<glyph unicode="`" horiz-adv-x="661" d="M135 1427l182 119l209 -354l-137 -90z" />
<glyph unicode="a" horiz-adv-x="1124" d="M76 258q0 156 110.5 227.5t286.5 98.5l242 37v73q0 86 -53.5 135.5t-147.5 49.5q-57 0 -126 -18.5t-107 -43.5l-21 -84q-10 -41 -29.5 -60.5t-50.5 -19.5q-23 0 -34 11.5t-11 27.5v219q88 51 201 83t219 32q178 0 288.5 -87t110.5 -251v-555l66 -27q41 -18 57.5 -33.5 t16.5 -37.5q0 -35 -31 -35h-344v113h-8q-53 -63 -138.5 -102.5t-179.5 -39.5q-131 0 -224 75t-93 212zM315 268q0 -66 41 -103.5t113 -37.5q63 0 119.5 30.5t91.5 81t35 107.5v133l-197 -30q-203 -35 -203 -181z" />
<glyph unicode="b" horiz-adv-x="1241" d="M29 1372q0 41 28.5 61.5t79.5 20.5h266v-551l7 -2q61 59 141 92t168 33q127 0 229.5 -57.5t162.5 -177t60 -299.5q0 -172 -71.5 -289t-193.5 -174.5t-271 -57.5q-117 0 -241 33t-224 90v1221h-94q-47 0 -47 57zM408 174q47 -27 106 -41t113 -14q147 0 226 91t79 279 q0 201 -74 295.5t-205 94.5q-98 0 -171.5 -61.5t-73.5 -158.5v-485z" />
<glyph unicode="c" horiz-adv-x="1019" d="M66 502q0 168 68.5 286.5t183 178t253.5 59.5q111 0 210.5 -37t158.5 -88v-213q0 -39 -47 -39q-59 0 -76 78l-22 96q-35 25 -85.5 39.5t-107.5 14.5q-131 0 -214 -96.5t-83 -280.5q0 -186 86 -283.5t225 -97.5q68 0 120 17.5t106 56.5q33 25 55 24q25 0 42 -19.5 t17 -50.5q0 -55 -82 -104q-119 -72 -276 -72q-156 0 -276.5 63.5t-188 183.5t-67.5 284z" />
<glyph unicode="d" horiz-adv-x="1261" d="M66 492q0 162 66.5 283.5t180 186t254.5 64.5t269 -70v359h-97q-47 0 -47 57q0 41 30 61.5t79 20.5h268v-1315l76 -33q41 -18 57.5 -33.5t16.5 -37.5q0 -35 -31 -35h-346v111h-8q-47 -63 -124 -101.5t-175 -38.5q-129 0 -234.5 56.5t-170 173t-64.5 291.5zM305 494 q0 -184 77 -279.5t210 -95.5q104 0 171.5 63.5t67.5 167.5v455q-45 33 -104 53.5t-119 20.5q-131 0 -217 -100.5t-86 -284.5z" />
<glyph unicode="e" horiz-adv-x="1093" d="M70 489q0 168 64.5 289t178 184.5t258.5 63.5q135 0 238.5 -53t162 -151.5t58.5 -229.5q0 -37 -10 -82t-27 -76h-682q0 -156 87 -235.5t210 -79.5q72 0 126 17.5t122 56.5q8 4 27.5 15t31.5 11q27 0 45.5 -20.5t18.5 -51.5q0 -29 -18.5 -51t-59.5 -47q-135 -78 -305 -78 q-150 0 -269.5 59.5t-188 176.5t-68.5 282zM311 582h469q10 27 11 61q0 111 -59.5 173.5t-162.5 62.5q-106 0 -178 -80t-80 -217z" />
<glyph unicode="f" horiz-adv-x="954" d="M78 909q0 43 29.5 65.5t78.5 22.5h52v129q0 172 101 261.5t259 89.5q106 0 198.5 -32t153.5 -85v-203q0 -16 -11 -27.5t-34 -11.5q-31 0 -48 19.5t-30 60.5l-22 88q-68 41 -150 41q-80 0 -129 -48t-49 -142v-140h273q37 0 36 -39q0 -39 -30.5 -61.5t-96.5 -30.5l-182 -18 v-709l82 -33q39 -16 56.5 -31.5t17.5 -39.5q0 -35 -31 -35h-459q-47 0 -47 57q0 82 109 82h33v709h-109q-25 0 -38 16.5t-13 44.5z" />
<glyph unicode="g" horiz-adv-x="1179" d="M66 492q0 176 73.5 296.5t195.5 179t269 58.5q125 0 250 -43t215 -117v-899q0 -215 -130 -332.5t-370 -117.5q-94 0 -186 22.5t-154 59.5q-41 25 -60 47t-19 53t18 50.5t43 19.5q10 0 24.5 -7.5t34.5 -19.5q131 -78 291 -78q137 0 209 70.5t72 197.5v172h-8 q-49 -61 -124 -97t-175 -36q-129 0 -234.5 56.5t-170 173t-64.5 291.5zM305 494q0 -184 77 -279.5t208 -95.5q104 0 172.5 63.5t68.5 167.5v469q-45 27 -102 43.5t-119 16.5q-133 0 -219 -101.5t-86 -283.5z" />
<glyph unicode="h" horiz-adv-x="1339" d="M90 57q0 82 109 82h32v1176h-94q-47 0 -47 57q0 41 28.5 61.5t80.5 20.5h264v-577h8q167 149 342 149h2q147 0 242.5 -85t95.5 -232v-570l80 -33q41 -18 57.5 -33.5t16.5 -37.5q0 -35 -31 -35h-459q-47 0 -47 57q0 82 109 82h34v553q0 84 -45 133t-133 49 q-68 0 -137.5 -37.5t-126.5 -99.5v-598l82 -33q41 -18 57.5 -33.5t16.5 -37.5q0 -35 -31 -35h-459q-47 0 -47 57z" />
<glyph unicode="i" horiz-adv-x="636" d="M74 57q0 82 108 82h33v727h-94q-47 0 -47 58q0 41 28.5 61.5t79.5 20.5h273v-867l82 -33q41 -18 57 -33.5t16 -37.5q0 -35 -30 -35h-459q-47 0 -47 57zM172 1309q0 72 45 114.5t113 42.5t113.5 -43t45.5 -114q0 -72 -46 -115t-113 -43q-68 0 -113 43t-45 115z" />
<glyph unicode="j" horiz-adv-x="708" d="M6 -313q117 41 186.5 89t103.5 120.5t34 183.5v786h-97q-47 0 -47 58q0 41 30 61.5t79 20.5h274v-945q0 -193 -78.5 -313.5t-189.5 -185.5q-43 -25 -78 -35t-73 -10q-62 0 -101 41t-43 129zM289 1309q0 72 45 114.5t112 42.5q68 0 114 -43t46 -114q0 -72 -46 -115 t-114 -43q-67 0 -112 43t-45 115z" />
<glyph unicode="k" horiz-adv-x="1300" d="M90 57q0 82 109 82h32v1176h-94q-47 0 -47 57q0 41 28.5 61.5t80.5 20.5h272v-1315l80 -33q41 -16 57.5 -32.5t16.5 -38.5q0 -35 -33 -35h-455q-47 0 -47 57zM471 520l367 338h-123q-25 0 -38 16.5t-13 45.5q0 43 30.5 64.5t83.5 21.5h381q41 0 41 -50q0 -49 -86 -77 l-72 -21l-315 -299l356 -418l97 -28q43 -14 63.5 -32t20.5 -44q0 -37 -35 -37h-338z" />
<glyph unicode="l" horiz-adv-x="673" d="M94 57q0 82 109 82h33v1176h-95q-47 0 -47 57q0 41 29 61.5t80 20.5h272v-1315l82 -33q41 -18 57.5 -33.5t16.5 -37.5q0 -35 -31 -35h-459q-47 0 -47 57z" />
<glyph unicode="m" horiz-adv-x="1943" d="M84 57q0 82 109 82h32v727h-94q-47 0 -47 58q0 41 28.5 61.5t80.5 20.5h262v-129h6q175 149 338 149h2q98 0 172 -42t110 -122q180 164 363 164q139 0 228 -82t89 -227v-580l80 -31q37 -14 53.5 -30.5t16.5 -40.5q0 -35 -33 -35h-446q-47 0 -48 57q0 82 109 82h29v555 q0 176 -160 176q-66 0 -131.5 -35.5t-118.5 -89.5v-608l82 -31q37 -14 53.5 -30.5t16.5 -40.5q0 -35 -33 -35h-447q-47 0 -47 57q0 82 109 82h26v555q0 176 -159 176q-66 0 -130.5 -35.5t-119.5 -91.5v-606l82 -31q37 -14 53 -30.5t16 -40.5q0 -35 -32 -35h-453 q-47 0 -47 57z" />
<glyph unicode="n" horiz-adv-x="1333" d="M84 57q0 82 109 82h32v727h-94q-47 0 -47 58q0 41 28.5 61.5t80.5 20.5h262v-132h6q170 152 348 152q147 0 242.5 -85t95.5 -232v-570l80 -33q41 -18 57 -33.5t16 -37.5q0 -35 -30 -35h-459q-47 0 -47 57q0 82 108 82h35v549q0 86 -45 134t-133 48q-68 0 -137.5 -37.5 t-126.5 -99.5v-594l82 -33q41 -18 57.5 -33.5t16.5 -37.5q0 -35 -31 -35h-459q-47 0 -47 57z" />
<glyph unicode="o" horiz-adv-x="1144" d="M68 500q0 172 66.5 289.5t181 177t257.5 59.5t257 -59.5t180.5 -177t66.5 -289.5t-66.5 -291t-180 -178.5t-257.5 -59.5q-143 0 -257.5 59.5t-181 178.5t-66.5 291zM309 500q0 -184 68.5 -282.5t195.5 -98.5t196 98t69 283q0 182 -69 280.5t-196 98.5t-195.5 -98.5 t-68.5 -280.5z" />
<glyph unicode="p" horiz-adv-x="1306" d="M90 -379q0 82 109 82h32v1163h-94q-47 0 -47 58q0 41 28.5 61.5t80.5 20.5h266v-103l6 -4q131 127 303 127q127 0 231.5 -57.5t168 -177t63.5 -299.5q0 -250 -139.5 -385.5t-370.5 -135.5q-59 0 -130 15.5t-128 42.5v-326l84 -33q43 -16 57.5 -31.5t14.5 -39.5 q0 -35 -31 -35h-457q-47 0 -47 57zM469 176q45 -27 106.5 -42t112.5 -15q150 0 229.5 91t79.5 279q0 199 -74.5 294.5t-207.5 95.5q-98 0 -172 -61.5t-74 -158.5v-483z" />
<glyph unicode="q" horiz-adv-x="1249" d="M66 492q0 162 66.5 283.5t180 186t252.5 64.5t271 -72q16 51 67 52h166v-1305l80 -31q41 -16 56.5 -31.5t15.5 -39.5q0 -35 -31 -35h-467q-47 0 -47 57q0 41 29.5 61.5t78.5 20.5h58v401h-8q-47 -61 -123 -97t-176 -36q-129 0 -234.5 56.5t-170 173t-64.5 291.5zM305 494 q0 -184 77 -279.5t208 -95.5q104 0 172.5 63.5t68.5 167.5v455q-43 33 -103 53.5t-120 20.5q-131 0 -217 -101.5t-86 -283.5z" />
<glyph unicode="r" horiz-adv-x="944" d="M84 57q0 82 109 82h32v727h-94q-47 0 -47 58q0 41 28.5 61.5t80.5 20.5h262v-207h6q74 96 168 161.5t180 65.5q59 0 92 -32.5t33 -84.5q0 -31 -11.5 -60.5t-29.5 -47.5q-236 0 -428 -156v-506l82 -33q41 -18 57.5 -33.5t16.5 -37.5q0 -35 -31 -35h-459q-47 0 -47 57z" />
<glyph unicode="s" horiz-adv-x="944" d="M74 82v221q0 16 11 28.5t34 12.5q57 0 78 -80l20 -88q33 -25 94.5 -40t126.5 -15q193 0 193 108q0 41 -24.5 69t-67.5 50.5t-170 81.5q-158 74 -224.5 142.5t-66.5 175.5q0 131 108.5 204.5t270.5 73.5q111 0 212 -38t158 -87v-211q0 -16 -11 -26.5t-34 -10.5 q-31 0 -49 19.5t-28 58.5l-23 92q-35 25 -85 39.5t-108 14.5q-76 0 -124 -27t-48 -84q0 -35 19.5 -59.5t58.5 -47t129 -65.5l68 -33q152 -74 215 -140.5t63 -176.5q0 -141 -117.5 -207t-291.5 -66q-109 0 -218.5 33t-168.5 78z" />
<glyph unicode="t" horiz-adv-x="890" d="M59 909q0 43 30 65.5t79 21.5h86l37 231h198v-231h316q14 0 23.5 -7.5t9.5 -21.5q0 -33 -26 -50.5t-85 -29.5l-238 -39v-604q0 -61 32 -92t87 -31q66 0 123 45q6 4 21.5 17.5t33.5 13.5q27 0 44.5 -17.5t17.5 -46.5q0 -51 -80 -102q-94 -59 -213 -60q-131 0 -218 76 t-87 211v590h-139q-25 0 -38.5 16.5t-13.5 44.5z" />
<glyph unicode="u" horiz-adv-x="1290" d="M37 924q0 41 28.5 61.5t79.5 20.5h273v-697q0 -86 45 -134t133 -48q68 0 136.5 38t125.5 99v602h-94q-47 0 -47 58q0 41 28.5 61.5t79.5 20.5h273v-867l76 -33q41 -18 57 -32.5t16 -38.5q0 -35 -30 -35h-347v123h-8q-170 -152 -346 -152q-147 0 -242.5 85t-95.5 233v577 h-94q-47 0 -47 58z" />
<glyph unicode="v" horiz-adv-x="1212" d="M-4 924q0 41 28.5 61.5t77.5 20.5h398q33 0 32 -35q0 -43 -73 -72l-90 -35l223 -657q8 -23 15 -55.5t9 -42.5h9q2 10 9 42.5t15 55.5l238 659h-111q-47 0 -47 58q0 41 28.5 61.5t78.5 20.5h348q33 0 33 -35q0 -23 -19.5 -39.5t-54.5 -32.5l-80 -35l-318 -864h-309 l-315 866h-78q-47 0 -47 58z" />
<glyph unicode="w" horiz-adv-x="1847" d="M-4 924q0 41 28.5 61.5t77.5 20.5h398q33 0 32 -35q0 -45 -73 -72l-103 -35l191 -628q8 -33 13 -68t5 -45h8q0 10 5.5 45t13.5 68l203 770h290l226 -770q8 -33 13 -68t5 -45h8q0 10 5.5 45t13.5 68l172 630h-115q-49 0 -49 58q0 41 29.5 61.5t79.5 20.5h348q31 0 30 -35 q0 -23 -19.5 -39.5t-53.5 -32.5l-78 -35l-248 -864h-309l-205 711q-12 39 -17.5 89t-5.5 66h-8q0 -16 -6 -66t-16 -89l-189 -711h-309l-266 866h-78q-47 0 -47 58z" />
<glyph unicode="x" horiz-adv-x="1159" d="M18 57q0 37 29 59.5t68 22.5h28l263 381l-236 346h-88q-47 0 -47 58q0 37 28.5 59.5t67.5 22.5h234l256 -388l176 248h-88q-47 0 -47 58q0 37 28.5 59.5t67.5 22.5h336q29 0 28 -35q0 -20 -16 -38t-53 -34l-76 -35l-246 -344l262 -379l80 -35q70 -29 70 -71 q0 -35 -29 -35h-311l-287 422l-192 -281l86 -35q67 -29 67 -70q0 -36 -26 -36h-385q-48 0 -48 57z" />
<glyph unicode="y" horiz-adv-x="1198" d="M0 924q0 41 28.5 61.5t77.5 20.5h398q33 0 33 -35q0 -43 -74 -72l-90 -35l227 -553q8 -18 10 -48t2 -38h11q0 10 3 39t11 47l235 555h-110q-47 0 -47 58q0 41 28.5 61.5t77.5 20.5h348q33 0 33 -35q0 -23 -19.5 -39.5t-54.5 -32.5l-79 -35l-385 -903 q-88 -205 -189.5 -315.5t-243.5 -110.5q-57 0 -96 32t-39 85q0 43 25 80q135 0 214 42t132 160l27 66l-369 866h-78q-47 0 -47 58z" />
<glyph unicode="z" horiz-adv-x="948" d="M72 0v168l506 690h-340l-21 -90q-10 -41 -26.5 -60.5t-49.5 -19.5q-23 0 -34 12.5t-11 30.5v275h760v-168l-506 -691h383l21 91q10 41 27.5 60t47.5 19q23 0 35.5 -12t12.5 -29v-276h-805z" />
<glyph unicode="{" horiz-adv-x="913" d="M98 530v213q219 27 219 224v331q0 162 86 233t230 71h196v-162h-153q-59 0 -89 -29t-30 -92v-385q0 -115 -45 -183.5t-150 -113.5q104 -45 149.5 -113.5t45.5 -181.5v-387q0 -63 29.5 -91t89.5 -28h153v-164h-196q-144 0 -230 71t-86 232v332q0 94 -49 152.5t-170 70.5z " />
<glyph unicode="|" horiz-adv-x="649" d="M205 -252v1759h239v-1759h-239z" />
<glyph unicode="}" horiz-adv-x="913" d="M84 -164h154q59 0 88.5 27.5t29.5 91.5v387q0 113 46.5 181.5t148.5 113.5q-104 45 -149.5 113.5t-45.5 183.5v385q0 63 -29.5 92t-88.5 29h-154v162h197q143 0 229 -71t86 -233v-331q0 -197 219 -224v-213q-121 -12 -170 -70.5t-49 -152.5v-332q0 -162 -86 -232.5 t-229 -70.5h-197v164z" />
<glyph unicode="~" horiz-adv-x="1271" d="M100 649q170 129 320 129q51 0 101 -13t122 -44q115 -49 205 -49q113 0 231 88l78 -164q-86 -66 -158.5 -97.5t-150.5 -31.5q-101 0 -234 57q-111 49 -196 49q-115 0 -240 -88z" />
<glyph unicode="&#xa1;" horiz-adv-x="688" d="M205 -469l65 1114h148l63 -1114h-276zM225 885q0 53 34 87t85 34t86 -34t35 -87t-35 -86t-86 -33t-85 32.5t-34 86.5z" />
<glyph unicode="&#xa2;" horiz-adv-x="1179" d="M115 598q0 233 123.5 376.5t316.5 172.5v164h190v-162q92 -14 171 -49t122 -76v-231q0 -16 -12 -28.5t-35 -12.5q-63 0 -82 84l-24 102q-33 27 -88.5 41t-114.5 14q-137 0 -225 -100t-88 -295q0 -197 91 -300t238 -103q72 0 126.5 17t113.5 58q35 27 55 27 q29 0 47.5 -21.5t18.5 -54.5q0 -59 -88 -112q-104 -66 -254 -72v-172h-191v186q-188 43 -299.5 185.5t-111.5 361.5z" />
<glyph unicode="&#xa3;" horiz-adv-x="1337" d="M98 68q0 45 31 70.5t78 25.5h98q51 47 73.5 97t22.5 118q0 55 -32 139h-160q-31 0 -49.5 18.5t-18.5 47.5q0 45 31 71.5t78 26.5h49q-41 109 -41 184q0 172 119 263.5t297 91.5q115 0 222.5 -40t190.5 -110v-213q0 -59 -63 -59q-35 0 -56.5 24.5t-35.5 71.5l-29 109 q-96 55 -207 55q-88 0 -141 -50.5t-53 -140.5q0 -41 13 -84t38 -102h412q55 0 55 -51q0 -35 -26.5 -54.5t-67.5 -25.5l-303 -33q25 -78 24 -139q0 -119 -92 -215h393l17 59q27 98 98 99q25 0 41 -15.5t16 -44.5v-262h-962q-29 0 -44.5 18.5t-15.5 49.5z" />
<glyph unicode="&#xa5;" horiz-adv-x="1349" d="M-37 1325q0 41 30 63.5t81 22.5h485q33 0 33 -39q0 -33 -20.5 -50t-61.5 -30l-96 -26l303 -482l319 482h-100q-25 0 -38 15t-13 44q0 43 30.5 64.5t83.5 21.5h369q35 0 35 -35q0 -43 -68 -71l-102 -41l-258 -385h227v-156h-332l-71 -107v-79h405v-156h-405v-236l86 -32 q43 -16 60.5 -34t17.5 -44q0 -35 -33 -35h-481q-25 0 -38.5 16.5t-13.5 44.5q0 43 31 64.5t84 21.5h35v234h-404v156h404v41l-92 145h-312v156h213l-247 387h-97q-49 0 -49 59z" />
<glyph unicode="&#xa8;" horiz-adv-x="866" d="M96 1257q0 55 38 92t91 37t90 -36.5t37 -92.5q0 -55 -36.5 -92t-90.5 -37q-53 0 -91 37t-38 92zM516 1257q0 55 38 92t91 37t90 -36.5t37 -92.5q0 -55 -37 -92t-90 -37t-91 37t-38 92z" />
<glyph unicode="&#xa9;" horiz-adv-x="1628" d="M80 692q0 211 94 374t261 254t378 91q215 0 383 -91t261 -254t93 -374q0 -213 -93 -376.5t-261 -255t-383 -91.5q-213 0 -379 91.5t-260 255t-94 376.5zM221 692q0 -176 75 -312t210 -213t307 -77q174 0 309 77t211 213t76 312q0 174 -76 310.5t-211 212t-309 75.5 q-172 0 -307 -75.5t-210 -212t-75 -310.5zM432 692q0 131 54.5 224.5t145.5 140.5t199 47q88 0 167 -30t126 -68v-170q0 -33 -32 -33q-47 0 -64 63l-20 76q-53 41 -152 41q-102 0 -166.5 -73.5t-64.5 -219.5q0 -145 67.5 -221t175.5 -76q100 0 179 58q29 20 43 20 q20 0 33.5 -15.5t13.5 -41.5q0 -45 -66 -84q-90 -55 -217 -56q-188 0 -305 112t-117 306z" />
<glyph unicode="&#xab;" horiz-adv-x="1198" d="M125 459v53l313 371l146 -115l-211 -283l211 -282l-146 -115zM594 459v53l313 371l146 -115l-211 -283l211 -282l-146 -115z" />
<glyph unicode="&#xad;" horiz-adv-x="694" d="M39 528v199h616v-199h-616z" />
<glyph unicode="&#xae;" horiz-adv-x="962" d="M27 1124q0 129 60 230.5t164.5 158t229.5 56.5t229.5 -56.5t165 -158t60.5 -230.5q0 -131 -60.5 -232t-165 -157.5t-229.5 -56.5t-229.5 56.5t-164.5 157.5t-60 232zM137 1124q0 -166 97.5 -259t244.5 -93q150 0 248 93t98 259q0 164 -98 257.5t-248 93.5 q-147 0 -244.5 -93.5t-97.5 -257.5zM272 1329q0 23 21 23h207q74 0 116.5 -37t42.5 -98q0 -57 -31.5 -92t-84.5 -35h-17l117 -121l33 -13q20 -8 27.5 -14t7.5 -16q0 -20 -19 -21h-127l-137 172v-110l23 -13q12 -6 22 -14t10 -16q0 -18 -20 -19h-164q-10 0 -17.5 7.5 t-7.5 19.5q0 35 45 37h7v315l-25 14q-12 6 -20.5 13.5t-8.5 17.5zM428 1155h66q31 0 48 16.5t17 47.5q0 29 -17.5 46t-47.5 17h-66v-127z" />
<glyph unicode="&#xb4;" horiz-adv-x="659" d="M141 1192l211 354l180 -119l-251 -325z" />
<glyph unicode="&#xb8;" horiz-adv-x="806" d="M244 -360q70 23 103.5 58.5t33.5 78.5q0 74 -88 102l43 121h158l-43 -96q100 -43 100 -133q0 -72 -80 -131.5t-195 -81.5z" />
<glyph unicode="&#xbb;" horiz-adv-x="1198" d="M145 203l211 282l-211 283l146 115l313 -371v-53l-313 -371zM614 203l211 282l-211 283l146 115l313 -371v-53l-313 -371z" />
<glyph unicode="&#xbf;" horiz-adv-x="989" d="M94 -178q0 104 43 177t119 151q59 63 87 102t40 85t12 120v188h207v-229q0 -104 -39 -173t-123 -157q-59 -61 -91 -118.5t-32 -131.5q0 -78 49.5 -127t133.5 -49q57 0 110.5 14.5t89.5 38.5l23 92q10 41 27.5 60.5t50.5 19.5q23 0 34 -11t11 -28v-211 q-63 -51 -162.5 -87.5t-210.5 -36.5q-178 0 -278.5 86t-100.5 225zM377 885q0 53 34.5 87t86.5 34q51 0 84.5 -34t33.5 -87t-33.5 -86t-84.5 -33q-52 0 -86.5 32.5t-34.5 86.5z" />
<glyph unicode="&#xc0;" horiz-adv-x="1536" d="M2 61q0 43 30.5 64.5t82.5 21.5h35l475 1276h278l475 -1276l78 -26q41 -14 59.5 -31.5t18.5 -44.5q0 -45 -31 -45h-512q-49 0 -49 61q0 43 31 64.5t82 21.5h65l-104 281h-572l-102 -281l113 -34q47 -14 65.5 -30.5t18.5 -43.5q0 -39 -31 -39h-455q-24 0 -37.5 16.5 t-13.5 44.5zM459 1870l182 119l209 -355l-137 -90zM504 592h450l-223 616z" />
<glyph unicode="&#xc1;" horiz-adv-x="1536" d="M2 61q0 43 30.5 64.5t82.5 21.5h35l475 1276h278l475 -1276l78 -26q41 -14 59.5 -31.5t18.5 -44.5q0 -45 -31 -45h-512q-49 0 -49 61q0 43 31 64.5t82 21.5h65l-104 281h-572l-102 -281l113 -34q47 -14 65.5 -30.5t18.5 -43.5q0 -39 -31 -39h-455q-24 0 -37.5 16.5 t-13.5 44.5zM504 592h450l-223 616zM657 1632l211 355l181 -119l-252 -326z" />
<glyph unicode="&#xc2;" horiz-adv-x="1536" d="M2 61q0 43 30.5 64.5t82.5 21.5h35l475 1276h278l475 -1276l78 -26q41 -14 59.5 -31.5t18.5 -44.5q0 -45 -31 -45h-512q-49 0 -49 61q0 43 31 64.5t82 21.5h65l-104 281h-572l-102 -281l113 -34q47 -14 65.5 -30.5t18.5 -43.5q0 -39 -31 -39h-455q-24 0 -37.5 16.5 t-13.5 44.5zM442 1634l244 316h117l241 -316l-106 -92l-195 219l-194 -219zM504 592h450l-223 616z" />
<glyph unicode="&#xc4;" horiz-adv-x="1536" d="M2 61q0 43 30.5 64.5t82.5 21.5h35l475 1276h278l475 -1276l78 -26q41 -14 59.5 -31.5t18.5 -44.5q0 -45 -31 -45h-512q-49 0 -49 61q0 43 31 64.5t82 21.5h65l-104 281h-572l-102 -281l113 -34q47 -14 65.5 -30.5t18.5 -43.5q0 -39 -31 -39h-455q-24 0 -37.5 16.5 t-13.5 44.5zM418 1694q0 55 38 92t91 37t90 -37t37 -92t-37 -92t-90 -37t-91 36.5t-38 92.5zM504 592h450l-223 616zM838 1694q0 55 37.5 92t91.5 37q53 0 90 -37t37 -92t-37 -92t-90 -37q-54 0 -91.5 36.5t-37.5 92.5z" />
<glyph unicode="&#xc6;" horiz-adv-x="2340" d="M6 61q0 43 31 64.5t82 21.5h35l792 1115l-43 12q-61 16 -86.5 38.5t-25.5 59.5q0 27 12 39t28 12h1352v-319q0 -41 -41 -41q-27 0 -46 28.5t-38 94.5l-22 78h-619v-457h492l30 80q27 70 62 69q20 0 29.5 -10t9.5 -26v-383q0 -37 -39 -37q-33 0 -62 69l-30 80h-492v-489 h647l23 80q18 66 37.5 94t46.5 28q41 0 41 -40v-322h-1168q-39 0 -38 51q0 39 26.5 62.5t87.5 38.5l41 10v266h-586l-202 -281l114 -34q47 -14 64.5 -30.5t17.5 -43.5q0 -39 -28 -39h-484q-24 0 -37.5 16.5t-13.5 44.5zM686 592h475v663z" />
<glyph unicode="&#xc7;" horiz-adv-x="1368" d="M82 715q0 236 95 402.5t252 250.5t343 84q154 0 278 -43t207 -113v-272q0 -45 -45 -45q-33 0 -51 23.5t-33 78.5l-38 142q-43 27 -115 46t-158 19q-139 0 -246.5 -65.5t-168 -194.5t-60.5 -313q0 -186 63.5 -316.5t174 -197t249.5 -66.5q188 0 306 80q49 35 71 35 q27 0 47.5 -21.5t20.5 -52.5q0 -55 -70 -102q-57 -37 -144 -65.5t-200 -35.5l-39 -90q100 -39 101 -133q0 -72 -80 -131t-195 -80l-33 82q137 43 138 135q0 76 -88 103l41 116q-180 18 -320.5 108.5t-221.5 250.5t-81 381z" />
<glyph unicode="&#xc8;" d="M104 51q0 39 27 62.5t88 38.5l41 10v1100l-41 10q-61 16 -88 38.5t-27 61.5q0 51 39 51h1155v-319q0 -41 -41 -41q-27 0 -46 28.5t-37 94.5l-23 78h-635v-457h508l31 80q27 70 63 69q18 0 27.5 -10t9.5 -26v-383q0 -37 -37 -37q-18 0 -32.5 16t-30.5 53l-31 80h-508v-489 h664l22 80q18 66 38 94t46 28q23 0 32 -10t9 -30v-322h-1184q-39 0 -39 51zM483 1870l183 119l208 -355l-137 -90z" />
<glyph unicode="&#xc9;" d="M104 51q0 39 27 62.5t88 38.5l41 10v1100l-41 10q-61 16 -88 38.5t-27 61.5q0 51 39 51h1155v-319q0 -41 -41 -41q-27 0 -46 28.5t-37 94.5l-23 78h-635v-457h508l31 80q27 70 63 69q18 0 27.5 -10t9.5 -26v-383q0 -37 -37 -37q-18 0 -32.5 16t-30.5 53l-31 80h-508v-489 h664l22 80q18 66 38 94t46 28q23 0 32 -10t9 -30v-322h-1184q-39 0 -39 51zM588 1634l211 355l180 -119l-252 -326z" />
<glyph unicode="&#xca;" d="M104 51q0 39 27 62.5t88 38.5l41 10v1100l-41 10q-61 16 -88 38.5t-27 61.5q0 51 39 51h1155v-319q0 -41 -41 -41q-27 0 -46 28.5t-37 94.5l-23 78h-635v-457h508l31 80q27 70 63 69q18 0 27.5 -10t9.5 -26v-383q0 -37 -37 -37q-18 0 -32.5 16t-30.5 53l-31 80h-508v-489 h664l22 80q18 66 38 94t46 28q23 0 32 -10t9 -30v-322h-1184q-39 0 -39 51zM426 1634l244 316h116l242 -316l-106 -92l-195 219l-195 -219z" />
<glyph unicode="&#xcb;" d="M104 51q0 39 27 62.5t88 38.5l41 10v1100l-41 10q-61 16 -88 38.5t-27 61.5q0 51 39 51h1155v-319q0 -41 -41 -41q-27 0 -46 28.5t-37 94.5l-23 78h-635v-457h508l31 80q27 70 63 69q18 0 27.5 -10t9.5 -26v-383q0 -37 -37 -37q-18 0 -32.5 16t-30.5 53l-31 80h-508v-489 h664l22 80q18 66 38 94t46 28q23 0 32 -10t9 -30v-322h-1184q-39 0 -39 51zM414 1694q0 55 37.5 92t91.5 37q53 0 90 -37t37 -92t-37 -92t-90 -37q-54 0 -91.5 36.5t-37.5 92.5zM834 1694q0 55 37.5 92t91.5 37q53 0 90 -37t37 -92t-37 -92t-90 -37q-54 0 -91.5 36.5 t-37.5 92.5z" />
<glyph unicode="&#xcc;" horiz-adv-x="798" d="M115 61q0 43 30.5 64.5t83.5 21.5h35v1129h-98q-25 0 -38 16.5t-13 44.5q0 43 30.5 64.5t81.5 21.5h422q20 0 27.5 -9t7.5 -25q0 -27 -17.5 -43.5t-60.5 -34.5l-86 -35v-1129l86 -34q43 -18 60.5 -35t17.5 -43q0 -16 -7 -25.5t-28 -9.5h-483q-25 0 -38 16.5t-13 44.5z M137 1870l182 119l209 -355l-137 -90z" />
<glyph unicode="&#xcd;" horiz-adv-x="798" d="M115 61q0 43 30.5 64.5t83.5 21.5h35v1129h-98q-25 0 -38 16.5t-13 44.5q0 43 30.5 64.5t81.5 21.5h422q20 0 27.5 -9t7.5 -25q0 -27 -17.5 -43.5t-60.5 -34.5l-86 -35v-1129l86 -34q43 -18 60.5 -35t17.5 -43q0 -16 -7 -25.5t-28 -9.5h-483q-25 0 -38 16.5t-13 44.5z M248 1634l211 355l180 -119l-252 -326z" />
<glyph unicode="&#xce;" horiz-adv-x="739" d="M66 1634l243 316h117l242 -316l-107 -92l-194 219l-195 -219zM96 61q0 43 31 64.5t84 21.5h35v1129h-99q-25 0 -38 16.5t-13 44.5q0 43 31 64.5t82 21.5h422q20 0 27.5 -9t7.5 -25q0 -27 -18.5 -45.5t-59.5 -34.5l-86 -33v-1129l86 -32q43 -16 60.5 -35t17.5 -45 q0 -16 -7.5 -25.5t-27.5 -9.5h-484q-24 0 -37.5 16.5t-13.5 44.5z" />
<glyph unicode="&#xcf;" horiz-adv-x="745" d="M35 1694q0 55 38 92t91 37t90 -37t37 -92t-37 -92t-90 -37t-91 36.5t-38 92.5zM94 61q0 43 31 64.5t84 21.5h35v1129h-99q-25 0 -38 16.5t-13 44.5q0 43 31 64.5t82 21.5h422q20 0 27.5 -9t7.5 -25q0 -27 -18.5 -45.5t-59.5 -34.5l-86 -33v-1129l86 -32q43 -16 60.5 -35 t17.5 -45q0 -16 -7.5 -25.5t-27.5 -9.5h-484q-24 0 -37.5 16.5t-13.5 44.5zM455 1694q0 55 37.5 92t91.5 37q53 0 90 -37t37 -92t-37 -92t-90 -37q-54 0 -91.5 36.5t-37.5 92.5z" />
<glyph unicode="&#xd1;" horiz-adv-x="1660" d="M104 61q0 43 31 64.5t84 21.5h35v1117l-41 10q-61 14 -85 36.5t-24 61.5q0 27 11.5 39t27.5 12h346l596 -858q66 -96 125 -250v961h-116q-25 0 -38.5 16.5t-13.5 44.5q0 43 31 64.5t82 21.5h375q33 0 33 -34q0 -41 -88 -80l-74 -33v-1276h-236l-618 893q-31 45 -53.5 91 t-49.5 122v-959l103 -34q43 -14 60.5 -32t17.5 -46q0 -35 -33 -35h-436q-25 0 -38.5 16.5t-13.5 44.5zM471 1710q49 45 106.5 73.5t106.5 28.5q31 0 58.5 -10t72.5 -30q47 -20 71.5 -29.5t53.5 -9.5q57 0 125 51l82 -117q-49 -49 -102.5 -75.5t-102.5 -26.5q-33 0 -63.5 10 t-69.5 31q-39 18 -66.5 28.5t-58.5 10.5q-37 0 -65.5 -12.5t-65.5 -39.5z" />
<glyph unicode="&#xd2;" horiz-adv-x="1548" d="M88 711q0 246 89 412.5t243.5 247.5t353.5 81t353.5 -81t243.5 -248t89 -412q0 -248 -89 -414t-243.5 -246t-353.5 -80t-353.5 80t-243.5 246t-89 414zM348 711q0 -279 109.5 -427.5t316.5 -148.5q209 0 317.5 148.5t108.5 427.5t-108.5 428t-317.5 149 q-207 0 -316.5 -149.5t-109.5 -427.5zM512 1870l182 119l209 -355l-137 -90z" />
<glyph unicode="&#xd3;" horiz-adv-x="1548" d="M88 711q0 246 89 412.5t243.5 247.5t353.5 81t353.5 -81t243.5 -248t89 -412q0 -248 -89 -414t-243.5 -246t-353.5 -80t-353.5 80t-243.5 246t-89 414zM348 711q0 -279 109.5 -427.5t316.5 -148.5q209 0 317.5 148.5t108.5 427.5t-108.5 428t-317.5 149 q-207 0 -316.5 -149.5t-109.5 -427.5zM600 1632l211 355l180 -119l-252 -326z" />
<glyph unicode="&#xd4;" horiz-adv-x="1548" d="M88 711q0 246 89 412.5t243.5 247.5t353.5 81t353.5 -81t243.5 -248t89 -412q0 -248 -89 -414t-243.5 -246t-353.5 -80t-353.5 80t-243.5 246t-89 414zM348 711q0 -279 109.5 -427.5t316.5 -148.5q209 0 317.5 148.5t108.5 427.5t-108.5 428t-317.5 149 q-207 0 -316.5 -149.5t-109.5 -427.5zM473 1634l244 316h117l241 -316l-106 -92l-195 219l-194 -219z" />
<glyph unicode="&#xd6;" horiz-adv-x="1548" d="M88 711q0 246 89 412.5t243.5 247.5t353.5 81t353.5 -81t243.5 -248t89 -412q0 -248 -89 -414t-243.5 -246t-353.5 -80t-353.5 80t-243.5 246t-89 414zM348 711q0 -279 109.5 -427.5t316.5 -148.5q209 0 317.5 148.5t108.5 427.5t-108.5 428t-317.5 149 q-207 0 -316.5 -149.5t-109.5 -427.5zM436 1694q0 55 38 92t91 37t90 -37t37 -92t-37 -92t-90 -37t-91 36.5t-38 92.5zM856 1694q0 55 38 92t91 37t90 -37t37 -92t-37 -92t-90 -37t-91 36.5t-38 92.5z" />
<glyph unicode="&#xd9;" horiz-adv-x="1652" d="M74 1337q0 43 30.5 64.5t81.5 21.5h422q20 0 27.5 -9t7.5 -25q0 -27 -18.5 -45.5t-59.5 -34.5l-86 -33v-754q0 -188 98.5 -287.5t272.5 -99.5q176 0 276.5 100.5t100.5 286.5v754h-115q-25 0 -38 16.5t-13 44.5q0 43 30.5 64.5t82.5 21.5h372q18 0 25.5 -7t7.5 -25 q0 -39 -72 -74l-80 -39v-729q0 -188 -74.5 -317.5t-207.5 -195t-307 -65.5q-179 0 -318 66.5t-218 197t-79 314.5v727h-98q-25 0 -38 16.5t-13 44.5zM602 1870l182 119l209 -355l-137 -90z" />
<glyph unicode="&#xda;" horiz-adv-x="1652" d="M74 1337q0 43 30.5 64.5t81.5 21.5h422q20 0 27.5 -9t7.5 -25q0 -27 -18.5 -45.5t-59.5 -34.5l-86 -33v-754q0 -188 98.5 -287.5t272.5 -99.5q176 0 276.5 100.5t100.5 286.5v754h-115q-25 0 -38 16.5t-13 44.5q0 43 30.5 64.5t82.5 21.5h372q18 0 25.5 -7t7.5 -25 q0 -39 -72 -74l-80 -39v-729q0 -188 -74.5 -317.5t-207.5 -195t-307 -65.5q-179 0 -318 66.5t-218 197t-79 314.5v727h-98q-25 0 -38 16.5t-13 44.5zM670 1632l211 355l180 -119l-252 -326z" />
<glyph unicode="&#xdb;" horiz-adv-x="1652" d="M74 1337q0 43 30.5 64.5t81.5 21.5h422q20 0 27.5 -9t7.5 -25q0 -27 -18.5 -45.5t-59.5 -34.5l-86 -33v-754q0 -188 98.5 -287.5t272.5 -99.5q176 0 276.5 100.5t100.5 286.5v754h-115q-25 0 -38 16.5t-13 44.5q0 43 30.5 64.5t82.5 21.5h372q18 0 25.5 -7t7.5 -25 q0 -39 -72 -74l-80 -39v-729q0 -188 -74.5 -317.5t-207.5 -195t-307 -65.5q-179 0 -318 66.5t-218 197t-79 314.5v727h-98q-25 0 -38 16.5t-13 44.5zM541 1634l243 316h117l242 -316l-107 -92l-194 219l-195 -219z" />
<glyph unicode="&#xdc;" horiz-adv-x="1652" d="M74 1337q0 43 30.5 64.5t81.5 21.5h422q20 0 27.5 -9t7.5 -25q0 -27 -18.5 -45.5t-59.5 -34.5l-86 -33v-754q0 -188 98.5 -287.5t272.5 -99.5q176 0 276.5 100.5t100.5 286.5v754h-115q-25 0 -38 16.5t-13 44.5q0 43 30.5 64.5t82.5 21.5h372q18 0 25.5 -7t7.5 -25 q0 -39 -72 -74l-80 -39v-729q0 -188 -74.5 -317.5t-207.5 -195t-307 -65.5q-179 0 -318 66.5t-218 197t-79 314.5v727h-98q-25 0 -38 16.5t-13 44.5zM502 1694q0 55 38 92t91 37t90 -37t37 -92t-37 -92t-90 -37t-91 36.5t-38 92.5zM920 1694q0 55 37.5 92t91.5 37 q53 0 90 -37t37 -92t-37 -92t-90 -37q-54 0 -91.5 36.5t-37.5 92.5z" />
<glyph unicode="&#xdd;" horiz-adv-x="1472" d="M10 1337q0 43 31 64.5t82 21.5h487q35 0 35 -39q0 -33 -21.5 -51t-62.5 -30l-96 -27l307 -485l322 485h-103q-49 0 -49 61q0 43 31 64.5t82 21.5h375q33 0 32 -34q0 -47 -67 -74l-103 -39l-438 -658v-471l88 -32q41 -16 59.5 -35t18.5 -45q0 -16 -7 -25.5t-28 -9.5h-483 q-25 0 -38 16.5t-13 44.5q0 43 30.5 64.5t83.5 21.5h33v439l-440 690h-97q-25 0 -38 16.5t-13 44.5zM580 1634l211 355l180 -119l-252 -326z" />
<glyph unicode="&#xdf;" horiz-adv-x="1480" d="M104 57q0 41 30 61.5t81 20.5h51v873q0 233 133 351t367 118q131 0 240.5 -45t173 -122t63.5 -167q0 -72 -20.5 -121t-61.5 -111q-29 -45 -43 -75.5t-14 -67.5q0 -39 22.5 -68.5t77.5 -85.5q80 -78 123 -145t43 -170q0 -158 -112.5 -245t-290.5 -87q-88 0 -176.5 26 t-153.5 71v245q0 16 11 28.5t34 12.5q31 0 47 -19.5t27 -60.5l20 -92q35 -23 80 -35t88 -12q86 0 132 47t46 127t-35.5 136.5t-105.5 127.5q-59 59 -88 102.5t-29 96.5q0 47 15.5 79t48.5 81q33 43 50 80t17 90q0 96 -64.5 155.5t-168.5 59.5q-127 0 -192.5 -67.5 t-65.5 -192.5v-1057h-348q-51 0 -52 57z" />
<glyph unicode="&#xe0;" horiz-adv-x="1124" d="M76 258q0 156 110.5 227.5t286.5 98.5l242 37v73q0 86 -53.5 135.5t-147.5 49.5q-57 0 -126 -18.5t-107 -43.5l-21 -84q-10 -41 -29.5 -60.5t-50.5 -19.5q-23 0 -34 11.5t-11 27.5v219q88 51 201 83t219 32q178 0 288.5 -87t110.5 -251v-555l66 -27q41 -18 57.5 -33.5 t16.5 -37.5q0 -35 -31 -35h-344v113h-8q-53 -63 -138.5 -102.5t-179.5 -39.5q-131 0 -224 75t-93 212zM315 268q0 -66 41 -103.5t113 -37.5q63 0 119.5 30.5t91.5 81t35 107.5v133l-197 -30q-203 -35 -203 -181zM319 1475l183 118l209 -354l-138 -90z" />
<glyph unicode="&#xe1;" horiz-adv-x="1124" d="M76 258q0 156 110.5 227.5t286.5 98.5l242 37v73q0 86 -53.5 135.5t-147.5 49.5q-57 0 -126 -18.5t-107 -43.5l-21 -84q-10 -41 -29.5 -60.5t-50.5 -19.5q-23 0 -34 11.5t-11 27.5v219q88 51 201 83t219 32q178 0 288.5 -87t110.5 -251v-555l66 -27q41 -18 57.5 -33.5 t16.5 -37.5q0 -35 -31 -35h-344v113h-8q-53 -63 -138.5 -102.5t-179.5 -39.5q-131 0 -224 75t-93 212zM315 268q0 -66 41 -103.5t113 -37.5q63 0 119.5 30.5t91.5 81t35 107.5v133l-197 -30q-203 -35 -203 -181zM383 1239l211 354l180 -118l-252 -326z" />
<glyph unicode="&#xe2;" horiz-adv-x="1124" d="M76 258q0 156 110.5 227.5t286.5 98.5l242 37v73q0 86 -53.5 135.5t-147.5 49.5q-57 0 -126 -18.5t-107 -43.5l-21 -84q-10 -41 -29.5 -60.5t-50.5 -19.5q-23 0 -34 11.5t-11 27.5v219q88 51 201 83t219 32q178 0 288.5 -87t110.5 -251v-555l66 -27q41 -18 57.5 -33.5 t16.5 -37.5q0 -35 -31 -35h-344v113h-8q-53 -63 -138.5 -102.5t-179.5 -39.5q-131 0 -224 75t-93 212zM240 1221l243 315h117l242 -315l-107 -93l-194 220l-195 -220zM315 268q0 -66 41 -103.5t113 -37.5q63 0 119.5 30.5t91.5 81t35 107.5v133l-197 -30q-203 -35 -203 -181 z" />
<glyph unicode="&#xe4;" horiz-adv-x="1124" d="M76 258q0 156 110.5 227.5t286.5 98.5l242 37v73q0 86 -53.5 135.5t-147.5 49.5q-57 0 -126 -18.5t-107 -43.5l-21 -84q-10 -41 -29.5 -60.5t-50.5 -19.5q-23 0 -34 11.5t-11 27.5v219q88 51 201 83t219 32q178 0 288.5 -87t110.5 -251v-555l66 -27q41 -18 57.5 -33.5 t16.5 -37.5q0 -35 -31 -35h-344v113h-8q-53 -63 -138.5 -102.5t-179.5 -39.5q-131 0 -224 75t-93 212zM219 1284q0 55 38 92t91 37t90 -37t37 -92t-37 -92t-90 -37t-91 37t-38 92zM315 268q0 -66 41 -103.5t113 -37.5q63 0 119.5 30.5t91.5 81t35 107.5v133l-197 -30 q-203 -35 -203 -181zM639 1284q0 55 38 92t91 37t90 -37t37 -92t-37 -92t-90 -37t-91 37t-38 92z" />
<glyph unicode="&#xe6;" horiz-adv-x="1724" d="M76 254q0 156 108.5 226.5t282.5 97.5l248 38v78q0 88 -53.5 136.5t-147.5 48.5q-57 0 -126 -18.5t-107 -43.5l-21 -84q-10 -41 -29.5 -60.5t-50.5 -19.5q-23 0 -34 11.5t-11 27.5v219q88 51 201 83t219 32q98 0 181 -42t134 -116q137 158 334 158q135 0 239.5 -53 t162 -150.5t57.5 -224.5q0 -39 -11.5 -83t-27.5 -77h-682v-14q6 -143 90 -224t207 -81q72 0 127 17.5t123 56.5q20 12 34.5 19t24.5 7q25 0 44.5 -20.5t19.5 -51.5q0 -29 -19.5 -51t-60.5 -47q-131 -78 -303 -78q-139 0 -253 53.5t-181 153.5q-61 -100 -167 -153.5 t-235 -53.5q-131 0 -224 74t-93 209zM315 266q0 -63 41 -101t113 -38q63 0 120.5 31.5t92.5 84t35 109.5l-12 72q-2 16 -3 49l-190 -31q-197 -31 -197 -176zM944 588h469q10 27 10 61q0 104 -60 167t-161 63q-106 0 -178 -77t-80 -214z" />
<glyph unicode="&#xe7;" horiz-adv-x="1019" d="M66 502q0 168 68.5 286.5t183 178t253.5 59.5q111 0 210.5 -37t158.5 -88v-213q0 -39 -47 -39q-59 0 -76 78l-22 96q-35 25 -85.5 39.5t-107.5 14.5q-131 0 -214 -96.5t-83 -280.5q0 -186 86 -283.5t225 -97.5q63 0 116.5 18.5t109.5 55.5q35 25 55 24q25 0 42 -19.5 t17 -50.5q0 -55 -82 -104q-92 -57 -217 -70l-36 -79q100 -39 100 -134q0 -72 -80 -131t-195 -82l-32 82q70 23 103.5 59t33.5 79q0 76 -88 102l39 108q-199 29 -317.5 166.5t-118.5 358.5z" />
<glyph unicode="&#xe8;" horiz-adv-x="1093" d="M70 489q0 168 64.5 289t178 184.5t258.5 63.5q135 0 238.5 -53t162 -151.5t58.5 -229.5q0 -37 -10 -82t-27 -76h-682q0 -156 87 -235.5t210 -79.5q72 0 126 17.5t122 56.5q8 4 27.5 15t31.5 11q27 0 45.5 -20.5t18.5 -51.5q0 -29 -18.5 -51t-59.5 -47q-135 -78 -305 -78 q-150 0 -269.5 59.5t-188 176.5t-68.5 282zM309 1475l183 118l208 -354l-137 -90zM311 582h469q10 27 11 61q0 111 -59.5 173.5t-162.5 62.5q-106 0 -178 -80t-80 -217z" />
<glyph unicode="&#xe9;" horiz-adv-x="1093" d="M70 489q0 168 64.5 289t178 184.5t258.5 63.5q135 0 238.5 -53t162 -151.5t58.5 -229.5q0 -37 -10 -82t-27 -76h-682q0 -156 87 -235.5t210 -79.5q72 0 126 17.5t122 56.5q8 4 27.5 15t31.5 11q27 0 45.5 -20.5t18.5 -51.5q0 -29 -18.5 -51t-59.5 -47q-135 -78 -305 -78 q-150 0 -269.5 59.5t-188 176.5t-68.5 282zM311 582h469q10 27 11 61q0 111 -59.5 173.5t-162.5 62.5q-106 0 -178 -80t-80 -217zM387 1239l211 354l180 -118l-252 -326z" />
<glyph unicode="&#xea;" horiz-adv-x="1093" d="M70 489q0 168 64.5 289t178 184.5t258.5 63.5q135 0 238.5 -53t162 -151.5t58.5 -229.5q0 -37 -10 -82t-27 -76h-682q0 -156 87 -235.5t210 -79.5q72 0 126 17.5t122 56.5q8 4 27.5 15t31.5 11q27 0 45.5 -20.5t18.5 -51.5q0 -29 -18.5 -51t-59.5 -47q-135 -78 -305 -78 q-150 0 -269.5 59.5t-188 176.5t-68.5 282zM258 1221l244 315h116l242 -315l-106 -93l-195 220l-194 -220zM311 582h469q10 27 11 61q0 111 -59.5 173.5t-162.5 62.5q-106 0 -178 -80t-80 -217z" />
<glyph unicode="&#xeb;" horiz-adv-x="1093" d="M70 489q0 168 64.5 289t178 184.5t258.5 63.5q135 0 238.5 -53t162 -151.5t58.5 -229.5q0 -37 -10 -82t-27 -76h-682q0 -156 87 -235.5t210 -79.5q72 0 126 17.5t122 56.5q8 4 27.5 15t31.5 11q27 0 45.5 -20.5t18.5 -51.5q0 -29 -18.5 -51t-59.5 -47q-135 -78 -305 -78 q-150 0 -269.5 59.5t-188 176.5t-68.5 282zM217 1284q0 55 38 92t91 37t90 -37t37 -92t-37 -92t-90 -37t-91 37t-38 92zM311 582h469q10 27 11 61q0 111 -59.5 173.5t-162.5 62.5q-106 0 -178 -80t-80 -217zM635 1284q0 55 38 92t91 37t90 -37t37 -92t-37 -92t-90 -37 t-91 37t-38 92z" />
<glyph unicode="&#xec;" horiz-adv-x="673" d="M80 1475l182 118l209 -354l-137 -90zM106 57q0 82 109 82h33v727h-94q-47 0 -48 58q0 41 29 61.5t80 20.5h272v-867l82 -33q41 -18 57.5 -33.5t16.5 -37.5q0 -35 -31 -35h-458q-48 0 -48 57z" />
<glyph unicode="&#xed;" horiz-adv-x="651" d="M86 57q0 82 109 82h32v727h-94q-47 0 -47 58q0 41 28.5 61.5t80.5 20.5h272v-867l82 -33q41 -18 57.5 -33.5t16.5 -37.5q0 -35 -31 -35h-459q-47 0 -47 57zM152 1239l210 354l181 -118l-252 -326z" />
<glyph unicode="&#xee;" horiz-adv-x="655" d="M12 1241l244 315h117l241 -315l-106 -92l-195 219l-194 -219zM96 57q0 82 109 82h33v727h-95q-47 0 -47 58q0 41 29 61.5t80 20.5h272v-867l82 -33q41 -18 57.5 -33.5t16.5 -37.5q0 -35 -31 -35h-459q-47 0 -47 57z" />
<glyph unicode="&#xef;" horiz-adv-x="698" d="M6 1284q0 55 38 92t91 37t90 -37t37 -92t-37 -92t-90 -37t-91 37t-38 92zM113 57q0 82 108 82h33v727h-94q-47 0 -47 58q0 41 28.5 61.5t79.5 20.5h273v-867l81 -33q41 -18 57.5 -33.5t16.5 -37.5q0 -35 -31 -35h-458q-47 0 -47 57zM426 1284q0 55 38 92t91 37t90 -37 t37 -92t-37 -92t-90 -37t-91 37t-38 92z" />
<glyph unicode="&#xf1;" horiz-adv-x="1333" d="M84 57q0 82 109 82h32v727h-94q-47 0 -47 58q0 41 28.5 61.5t80.5 20.5h262v-132h6q170 152 348 152q147 0 242.5 -85t95.5 -232v-570l80 -33q41 -18 57 -33.5t16 -37.5q0 -35 -30 -35h-459q-47 0 -47 57q0 82 108 82h35v549q0 86 -45 134t-133 48q-68 0 -137.5 -37.5 t-126.5 -99.5v-594l82 -33q41 -18 57.5 -33.5t16.5 -37.5q0 -35 -31 -35h-459q-47 0 -47 57zM336 1313q49 45 106.5 73.5t106.5 28.5q31 0 58.5 -10t72.5 -31q47 -20 71.5 -29.5t53.5 -9.5q57 0 125 51l82 -116q-49 -49 -102.5 -76t-102.5 -27q-33 0 -63.5 10.5t-69.5 30.5 q-39 18 -66.5 28.5t-58.5 10.5q-37 0 -65.5 -12t-65.5 -39z" />
<glyph unicode="&#xf2;" horiz-adv-x="1144" d="M68 500q0 172 66.5 289.5t181 177t257.5 59.5t257 -59.5t180.5 -177t66.5 -289.5t-66.5 -291t-180 -178.5t-257.5 -59.5q-143 0 -257.5 59.5t-181 178.5t-66.5 291zM309 500q0 -184 68.5 -282.5t195.5 -98.5t196 98t69 283q0 182 -69 280.5t-196 98.5t-195.5 -98.5 t-68.5 -280.5zM332 1475l182 118l209 -354l-137 -90z" />
<glyph unicode="&#xf3;" horiz-adv-x="1144" d="M68 500q0 172 66.5 289.5t181 177t257.5 59.5t257 -59.5t180.5 -177t66.5 -289.5t-66.5 -291t-180 -178.5t-257.5 -59.5q-143 0 -257.5 59.5t-181 178.5t-66.5 291zM309 500q0 -184 68.5 -282.5t195.5 -98.5t196 98t69 283q0 182 -69 280.5t-196 98.5t-195.5 -98.5 t-68.5 -280.5zM422 1239l211 354l180 -118l-252 -326z" />
<glyph unicode="&#xf4;" horiz-adv-x="1144" d="M68 500q0 172 66.5 289.5t181 177t257.5 59.5t257 -59.5t180.5 -177t66.5 -289.5t-66.5 -291t-180 -178.5t-257.5 -59.5q-143 0 -257.5 59.5t-181 178.5t-66.5 291zM270 1221l244 315h117l241 -315l-106 -93l-195 220l-194 -220zM309 500q0 -184 68.5 -282.5t195.5 -98.5 t196 98t69 283q0 182 -69 280.5t-196 98.5t-195.5 -98.5t-68.5 -280.5z" />
<glyph unicode="&#xf6;" horiz-adv-x="1144" d="M68 500q0 172 66.5 289.5t181 177t257.5 59.5t257 -59.5t180.5 -177t66.5 -289.5t-66.5 -291t-180 -178.5t-257.5 -59.5q-143 0 -257.5 59.5t-181 178.5t-66.5 291zM236 1284q0 55 37.5 92t91.5 37q53 0 90 -37t37 -92t-37 -92t-90 -37q-54 0 -91.5 37t-37.5 92zM309 500 q0 -184 68.5 -282.5t195.5 -98.5t196 98t69 283q0 182 -69 280.5t-196 98.5t-195.5 -98.5t-68.5 -280.5zM655 1284q0 55 38 92t91 37t90 -37t37 -92t-36.5 -92t-90.5 -37q-53 0 -91 37t-38 92z" />
<glyph unicode="&#xf9;" horiz-adv-x="1290" d="M37 924q0 41 28.5 61.5t79.5 20.5h273v-697q0 -86 45 -134t133 -48q68 0 136.5 38t125.5 99v602h-94q-47 0 -47 58q0 41 28.5 61.5t79.5 20.5h273v-867l76 -33q41 -18 57 -32.5t16 -38.5q0 -35 -30 -35h-347v123h-8q-170 -152 -346 -152q-147 0 -242.5 85t-95.5 233v577 h-94q-47 0 -47 58zM326 1475l182 118l209 -354l-137 -90z" />
<glyph unicode="&#xfa;" horiz-adv-x="1290" d="M37 924q0 41 28.5 61.5t79.5 20.5h273v-697q0 -86 45 -134t133 -48q68 0 136.5 38t125.5 99v602h-94q-47 0 -47 58q0 41 28.5 61.5t79.5 20.5h273v-867l76 -33q41 -18 57 -32.5t16 -38.5q0 -35 -30 -35h-347v123h-8q-170 -152 -346 -152q-147 0 -242.5 85t-95.5 233v577 h-94q-47 0 -47 58zM442 1239l211 354l181 -118l-252 -326z" />
<glyph unicode="&#xfb;" horiz-adv-x="1290" d="M37 924q0 41 28.5 61.5t79.5 20.5h273v-697q0 -86 45 -134t133 -48q68 0 136.5 38t125.5 99v602h-94q-47 0 -47 58q0 41 28.5 61.5t79.5 20.5h273v-867l76 -33q41 -18 57 -32.5t16 -38.5q0 -35 -30 -35h-347v123h-8q-170 -152 -346 -152q-147 0 -242.5 85t-95.5 233v577 h-94q-47 0 -47 58zM299 1241l244 315h116l242 -315l-106 -92l-195 219l-194 -219z" />
<glyph unicode="&#xfc;" horiz-adv-x="1290" d="M37 924q0 41 28.5 61.5t79.5 20.5h273v-697q0 -86 45 -134t133 -48q68 0 136.5 38t125.5 99v602h-94q-47 0 -47 58q0 41 28.5 61.5t79.5 20.5h273v-867l76 -33q41 -18 57 -32.5t16 -38.5q0 -35 -30 -35h-347v123h-8q-170 -152 -346 -152q-147 0 -242.5 85t-95.5 233v577 h-94q-47 0 -47 58zM276 1284q0 55 38 92t92 37q53 0 89.5 -37t36.5 -92t-36.5 -92t-89.5 -37q-54 0 -92 37t-38 92zM696 1284q0 55 38 92t91 37t90 -37t37 -92t-36.5 -92t-90.5 -37q-53 0 -91 37t-38 92z" />
<glyph unicode="&#xfd;" horiz-adv-x="1198" d="M0 924q0 41 28.5 61.5t77.5 20.5h398q33 0 33 -35q0 -43 -74 -72l-90 -35l227 -553q8 -18 10 -48t2 -38h11q0 10 3 39t11 47l235 555h-110q-47 0 -47 58q0 41 28.5 61.5t77.5 20.5h348q33 0 33 -35q0 -23 -19.5 -39.5t-54.5 -32.5l-79 -35l-385 -903 q-88 -205 -189.5 -315.5t-243.5 -110.5q-57 0 -96 32t-39 85q0 43 25 80q135 0 214 42t132 160l27 66l-369 866h-78q-47 0 -47 58zM422 1239l211 354l180 -118l-252 -326z" />
<glyph unicode="&#xff;" horiz-adv-x="1198" d="M0 924q0 41 28.5 61.5t77.5 20.5h398q33 0 33 -35q0 -43 -74 -72l-90 -35l227 -553q8 -18 10 -48t2 -38h11q0 10 3 39t11 47l235 555h-110q-47 0 -47 58q0 41 28.5 61.5t77.5 20.5h348q33 0 33 -35q0 -23 -19.5 -39.5t-54.5 -32.5l-79 -35l-385 -903 q-88 -205 -189.5 -315.5t-243.5 -110.5q-57 0 -96 32t-39 85q0 43 25 80q135 0 214 42t132 160l27 66l-369 866h-78q-47 0 -47 58zM281 1284q0 55 37.5 92t91.5 37q53 0 90 -37t37 -92t-37 -92t-90 -37q-54 0 -91.5 37t-37.5 92zM700 1284q0 55 38 92t91 37t90 -37t37 -92 t-36.5 -92t-90.5 -37q-53 0 -91 37t-38 92z" />
<glyph unicode="&#x104;" horiz-adv-x="1536" d="M2 61q0 43 30.5 64.5t82.5 21.5h35l475 1276h278l475 -1276l78 -26q41 -14 59.5 -31.5t18.5 -44.5q0 -45 -31 -45h-164q-59 -29 -103 -89.5t-44 -119.5q0 -47 30.5 -76.5t86.5 -29.5q31 0 57.5 6t34.5 8l18 -100q-59 -33 -139 -33q-115 0 -184.5 58.5t-69.5 156.5 q0 63 39 121.5t109 97.5h-183q-49 0 -49 61q0 43 31 64.5t82 21.5h65l-104 281h-572l-102 -281l113 -34q49 -16 66.5 -31.5t17.5 -42.5q0 -39 -31 -39h-455q-25 0 -38 16.5t-13 44.5zM504 592h450l-223 616z" />
<glyph unicode="&#x105;" horiz-adv-x="1124" d="M76 258q0 156 110.5 227.5t286.5 98.5l242 37v73q0 86 -53.5 135.5t-147.5 49.5q-57 0 -126 -18.5t-107 -43.5l-21 -84q-10 -41 -29.5 -60.5t-50.5 -19.5q-23 0 -34 11.5t-11 27.5v219q88 51 201 83t219 32q178 0 288.5 -87t110.5 -251v-555l66 -27q41 -18 57.5 -33.5 t16.5 -37.5q0 -35 -31 -35h-180q-59 -29 -103.5 -89.5t-44.5 -119.5q0 -47 31 -76.5t86 -29.5q31 0 57.5 6t34.5 8l19 -100q-59 -33 -140 -33q-114 0 -184 58.5t-70 156.5q0 63 39 121.5t109 97.5h2v113h-8q-53 -63 -138.5 -102.5t-179.5 -39.5q-131 0 -224 75t-93 212z M315 268q0 -66 41 -103.5t113 -37.5q63 0 119.5 30.5t91.5 81t35 107.5v133l-197 -30q-203 -35 -203 -181z" />
<glyph unicode="&#x106;" horiz-adv-x="1368" d="M82 715q0 236 95 402.5t252 250.5t343 84q154 0 278 -43t207 -113v-272q0 -45 -45 -45q-33 0 -51 23.5t-33 78.5l-38 142q-43 27 -115 46t-158 19q-139 0 -246.5 -65.5t-168 -194.5t-60.5 -313q0 -186 63.5 -316.5t174 -197t249.5 -66.5q98 0 168 16.5t138 63.5 q51 35 71 35q27 0 47.5 -21.5t20.5 -52.5q0 -55 -70 -102q-66 -43 -169 -73t-240 -30q-201 0 -363 84t-256 252t-94 408zM610 1634l211 355l180 -119l-253 -326z" />
<glyph unicode="&#x107;" horiz-adv-x="1019" d="M66 502q0 168 68.5 286.5t183 178t253.5 59.5q111 0 210.5 -37t158.5 -88v-213q0 -39 -47 -39q-59 0 -76 78l-22 96q-35 25 -85.5 39.5t-107.5 14.5q-131 0 -214 -96.5t-83 -280.5q0 -186 86 -283.5t225 -97.5q68 0 120 17.5t106 56.5q33 25 55 24q25 0 42 -19.5 t17 -50.5q0 -55 -82 -104q-119 -72 -276 -72q-156 0 -276.5 63.5t-188 183.5t-67.5 284zM379 1239l211 354l180 -118l-252 -326z" />
<glyph unicode="&#x108;" horiz-adv-x="1368" d="M82 715q0 236 95 402.5t252 250.5t343 84q154 0 278 -43t207 -113v-272q0 -45 -45 -45q-33 0 -51 23.5t-33 78.5l-38 142q-43 27 -115 46t-158 19q-139 0 -246.5 -65.5t-168 -194.5t-60.5 -313q0 -186 63.5 -316.5t174 -197t249.5 -66.5q98 0 168 16.5t138 63.5 q51 35 71 35q27 0 47.5 -21.5t20.5 -52.5q0 -55 -70 -102q-66 -43 -169 -73t-240 -30q-201 0 -363 84t-256 252t-94 408zM436 1634l244 316h117l241 -316l-106 -92l-195 219l-194 -219z" />
<glyph unicode="&#x109;" horiz-adv-x="1019" d="M66 502q0 168 68.5 286.5t183 178t253.5 59.5q111 0 210.5 -37t158.5 -88v-213q0 -39 -47 -39q-59 0 -76 78l-22 96q-35 25 -85.5 39.5t-107.5 14.5q-131 0 -214 -96.5t-83 -280.5q0 -186 86 -283.5t225 -97.5q68 0 120 17.5t106 56.5q33 25 55 24q25 0 42 -19.5 t17 -50.5q0 -55 -82 -104q-119 -72 -276 -72q-156 0 -276.5 63.5t-188 183.5t-67.5 284zM242 1221l243 315h117l242 -315l-107 -93l-194 220l-195 -220z" />
<glyph unicode="&#x10c;" horiz-adv-x="1368" d="M82 715q0 236 95 402.5t252 250.5t343 84q154 0 278 -43t207 -113v-272q0 -45 -45 -45q-33 0 -51 23.5t-33 78.5l-38 142q-43 27 -115 46t-158 19q-139 0 -246.5 -65.5t-168 -194.5t-60.5 -313q0 -186 63.5 -316.5t174 -197t249.5 -66.5q98 0 168 16.5t138 63.5 q51 35 71 35q27 0 47.5 -21.5t20.5 -52.5q0 -55 -70 -102q-66 -43 -169 -73t-240 -30q-201 0 -363 84t-256 252t-94 408zM434 1855l107 95l194 -219l195 219l106 -95l-241 -313h-117z" />
<glyph unicode="&#x10d;" horiz-adv-x="1019" d="M66 502q0 168 68.5 286.5t183 178t253.5 59.5q111 0 210.5 -37t158.5 -88v-213q0 -39 -47 -39q-59 0 -76 78l-22 96q-35 25 -85.5 39.5t-107.5 14.5q-131 0 -214 -96.5t-83 -280.5q0 -186 86 -283.5t225 -97.5q68 0 120 17.5t106 56.5q33 25 55 24q25 0 42 -19.5 t17 -50.5q0 -55 -82 -104q-119 -72 -276 -72q-156 0 -276.5 63.5t-188 183.5t-67.5 284zM244 1462l106 94l195 -219l194 219l107 -94l-242 -313h-117z" />
<glyph unicode="&#x10e;" horiz-adv-x="1556" d="M104 51q0 39 27 62.5t88 38.5l41 10v1100l-41 10q-61 16 -88 38.5t-27 61.5q0 51 39 51h635q197 0 353.5 -77.5t249 -237.5t92.5 -399q0 -240 -92.5 -398.5t-248 -234.5t-354.5 -76h-635q-39 0 -39 51zM406 1855l106 95l195 -219l194 219l107 -95l-242 -313h-117z M516 164h262q211 0 323.5 143.5t112.5 401.5q0 260 -113.5 405.5t-322.5 145.5h-262v-1096z" />
<glyph unicode="&#x10f;" horiz-adv-x="1480" d="M66 492q0 162 66.5 283.5t180 186t254.5 64.5t269 -70v359h-97q-47 0 -47 57q0 41 30 61.5t79 20.5h268v-1315l76 -33q41 -18 57.5 -33.5t16.5 -37.5q0 -35 -31 -35h-346v111h-8q-47 -63 -124 -101.5t-175 -38.5q-129 0 -234.5 56.5t-170 173t-64.5 291.5zM305 494 q0 -184 77 -279.5t210 -95.5q104 0 171.5 63.5t67.5 167.5v455q-45 33 -104 53.5t-119 20.5q-131 0 -217 -100.5t-86 -284.5zM1178 1051q41 59 78.5 141t43.5 131l-55 16q-35 14 -35 45t19.5 48.5t52.5 17.5q10 0 31 -4l194 -43q-25 -96 -86 -216t-137 -202z" />
<glyph unicode="&#x118;" d="M104 51q0 37 26 58.5t89 40.5l41 12v1100l-41 12q-63 18 -89 39.5t-26 58.5q0 51 39 51h1155v-319q0 -41 -41 -41q-27 0 -43 27.5t-38 95.5l-25 78h-635v-457h508l33 80q16 37 29.5 53t31.5 16t27.5 -10t9.5 -26v-383q0 -37 -37 -37q-18 0 -31.5 16t-29.5 53l-33 80h-508 v-489h664l24 80q20 66 39 94t43 28q23 0 32 -10t9 -30v-322h-82q-59 -29 -103 -89.5t-44 -119.5q0 -47 30.5 -76.5t85.5 -29.5q31 0 57.5 6t35.5 8l18 -100q-59 -33 -139 -33q-115 0 -184.5 58.5t-69.5 156.5q0 63 39 121.5t108 97.5h-936q-39 0 -39 51z" />
<glyph unicode="&#x119;" horiz-adv-x="1093" d="M70 489q0 168 64.5 289t178 184.5t258.5 63.5q135 0 238.5 -53t162 -151.5t58.5 -229.5q0 -37 -10 -82t-27 -76h-682q0 -156 87 -235.5t210 -79.5q72 0 126 17.5t122 56.5q8 4 27.5 15t31.5 11q27 0 45.5 -20.5t18.5 -51.5q0 -29 -18.5 -51t-59.5 -47q-115 -66 -252 -76 q-45 -35 -74.5 -85t-29.5 -97t30.5 -76.5t86.5 -29.5q31 0 57 6t35 8l18 -100q-59 -33 -139 -33q-115 0 -184.5 58.5t-69.5 156.5q0 55 29.5 107.5t85.5 91.5q-190 29 -307 160.5t-117 348.5zM311 582h469q10 27 11 61q0 111 -59.5 173.5t-162.5 62.5q-106 0 -178 -80 t-80 -217z" />
<glyph unicode="&#x11a;" d="M104 51q0 39 27 62.5t88 38.5l41 10v1100l-41 10q-61 16 -88 38.5t-27 61.5q0 51 39 51h1155v-319q0 -41 -41 -41q-27 0 -46 28.5t-37 94.5l-23 78h-635v-457h508l31 80q27 70 63 69q18 0 27.5 -10t9.5 -26v-383q0 -37 -37 -37q-18 0 -32.5 16t-30.5 53l-31 80h-508v-489 h664l22 80q18 66 38 94t46 28q23 0 32 -10t9 -30v-322h-1184q-39 0 -39 51zM430 1855l107 95l194 -219l195 219l106 -95l-241 -313h-117z" />
<glyph unicode="&#x11b;" horiz-adv-x="1093" d="M70 489q0 168 64.5 289t178 184.5t258.5 63.5q135 0 238.5 -53t162 -151.5t58.5 -229.5q0 -37 -10 -82t-27 -76h-682q0 -156 87 -235.5t210 -79.5q72 0 126 17.5t122 56.5q8 4 27.5 15t31.5 11q27 0 45.5 -20.5t18.5 -51.5q0 -29 -18.5 -51t-59.5 -47q-135 -78 -305 -78 q-150 0 -269.5 59.5t-188 176.5t-68.5 282zM236 1462l106 94l195 -219l194 219l107 -94l-242 -313h-117zM311 582h469q10 27 11 61q0 111 -59.5 173.5t-162.5 62.5q-106 0 -178 -80t-80 -217z" />
<glyph unicode="&#x11c;" horiz-adv-x="1505" d="M88 715q0 236 93 402.5t250 250.5t345 84q154 0 279 -43t209 -113v-272q0 -45 -45 -45q-33 0 -51.5 23.5t-32.5 78.5l-39 142q-43 27 -115 46t-158 19q-217 0 -346 -148.5t-129 -424.5q0 -186 62.5 -316.5t171 -197t247.5 -66.5q111 0 193 35v403h-166q-25 0 -37 16.5 t-12 45.5q0 43 30.5 64.5t82.5 21.5h481q31 0 31 -35q0 -27 -16.5 -44t-57.5 -34l-80 -33v-503q-94 -49 -216 -75t-241 -26q-205 0 -370.5 81t-264 248t-98.5 415zM473 1634l244 316h117l241 -316l-106 -92l-195 219l-194 -219z" />
<glyph unicode="&#x11d;" horiz-adv-x="1179" d="M66 492q0 176 73.5 296.5t195.5 179t269 58.5q125 0 250 -43t215 -117v-899q0 -215 -130 -332.5t-370 -117.5q-94 0 -186 22.5t-154 59.5q-41 25 -60 47t-19 53t18 50.5t43 19.5q10 0 24.5 -7.5t34.5 -19.5q131 -78 291 -78q137 0 209 70.5t72 197.5v172h-8 q-49 -61 -124 -97t-175 -36q-129 0 -234.5 56.5t-170 173t-64.5 291.5zM293 1221l244 315h116l242 -315l-107 -93l-194 220l-195 -220zM305 494q0 -184 77 -279.5t208 -95.5q104 0 172.5 63.5t68.5 167.5v469q-45 27 -102 43.5t-119 16.5q-133 0 -219 -101.5t-86 -283.5z " />
<glyph unicode="&#x124;" horiz-adv-x="1701" d="M104 61q0 43 31 64.5t84 21.5h35v1129h-98q-25 0 -38.5 16.5t-13.5 44.5q0 43 31 64.5t82 21.5h422q20 0 27.5 -9t7.5 -25q0 -27 -18.5 -45.5t-59.5 -34.5l-86 -33v-455h678v455h-109q-25 0 -38 16.5t-13 44.5q0 43 31 64.5t82 21.5h424q33 0 32 -34q0 -27 -15 -42.5 t-48 -29.5l-90 -41v-1129l90 -41q33 -14 48 -29.5t15 -41.5q0 -35 -32 -35h-486q-25 0 -38 16.5t-13 44.5q0 43 31 64.5t82 21.5h47v510h-678v-510l86 -32q43 -16 60.5 -35t17.5 -45q0 -16 -7.5 -25.5t-27.5 -9.5h-483q-25 0 -38.5 16.5t-13.5 44.5zM549 1634l244 316h116 l242 -316l-107 -92l-194 219l-195 -219z" />
<glyph unicode="&#x125;" horiz-adv-x="1339" d="M90 57q0 82 109 82h32v1176h-94q-47 0 -47 57q0 41 28.5 61.5t80.5 20.5h264v-577h8q168 150 344 149q147 0 242.5 -85t95.5 -232v-570l80 -33q41 -18 57.5 -33.5t16.5 -37.5q0 -35 -31 -35h-459q-47 0 -47 57q0 82 109 82h34v553q0 84 -45 133t-133 49 q-68 0 -137.5 -37.5t-126.5 -99.5v-598l82 -33q41 -18 57.5 -33.5t16.5 -37.5q0 -35 -31 -35h-459q-47 0 -47 57zM483 1630l244 316h117l241 -316l-106 -92l-195 219l-194 -219z" />
<glyph unicode="&#x134;" horiz-adv-x="888" d="M63 143q117 41 186.5 88.5t103.5 120t34 183.5v741h-131q-25 0 -38 16.5t-13 44.5q0 43 30.5 64.5t81.5 21.5h455q35 0 35 -34q0 -27 -18.5 -45.5t-59.5 -34.5l-86 -33v-758q0 -197 -77 -317.5t-191 -184.5q-84 -45 -168 -45q-62 0 -100.5 41t-43.5 131zM203 1634 l243 316h117l242 -316l-107 -92l-194 219l-195 -219z" />
<glyph unicode="&#x135;" horiz-adv-x="727" d="M6 -313q117 41 186.5 89t103.5 120.5t34 183.5v786h-97q-47 0 -47 58q0 41 30 61.5t79 20.5h274v-945q0 -197 -77.5 -320.5t-190.5 -178.5q-47 -23 -81 -34t-70 -11q-62 0 -101 41t-43 129zM94 1241l244 315h117l241 -315l-106 -92l-195 219l-194 -219z" />
<glyph unicode="&#x141;" horiz-adv-x="1339" d="M106 582l205 127v567h-98q-25 0 -38 16.5t-13 44.5q0 43 30.5 64.5t81.5 21.5h439q35 0 35 -34q0 -29 -17.5 -47.5t-60.5 -32.5l-103 -33v-410l226 140l81 -142l-307 -188v-512h582l41 129q23 68 40 94.5t44 26.5q41 0 41 -41v-373h-1120q-39 0 -39 51q0 39 26.5 62.5 t87.5 38.5l41 10v356l-125 -78z" />
<glyph unicode="&#x142;" horiz-adv-x="716" d="M82 633l176 108v574h-94q-47 0 -47 57q0 41 28.5 61.5t79.5 20.5h273v-563l123 76l79 -140l-202 -125v-563l82 -33q41 -18 57 -33.5t16 -37.5q0 -35 -30 -35h-459q-47 0 -47 57q0 82 108 82h33v414l-96 -59z" />
<glyph unicode="&#x143;" horiz-adv-x="1660" d="M104 61q0 43 31 64.5t84 21.5h35v1117l-41 10q-61 14 -85 36.5t-24 61.5q0 27 11.5 39t27.5 12h346l596 -858q66 -96 125 -250v961h-116q-25 0 -38.5 16.5t-13.5 44.5q0 43 31 64.5t82 21.5h375q33 0 33 -34q0 -41 -88 -80l-74 -33v-1276h-236l-618 893q-31 45 -53.5 91 t-49.5 122v-959l103 -34q43 -14 60.5 -32t17.5 -46q0 -35 -33 -35h-436q-25 0 -38.5 16.5t-13.5 44.5zM653 1632l211 355l180 -119l-251 -326z" />
<glyph unicode="&#x144;" horiz-adv-x="1333" d="M84 57q0 82 109 82h32v727h-94q-47 0 -47 58q0 41 28.5 61.5t80.5 20.5h262v-132h6q170 152 348 152q147 0 242.5 -85t95.5 -232v-570l80 -33q41 -18 57 -33.5t16 -37.5q0 -35 -30 -35h-459q-47 0 -47 57q0 82 108 82h35v549q0 86 -45 134t-133 48q-68 0 -137.5 -37.5 t-126.5 -99.5v-594l82 -33q41 -18 57.5 -33.5t16.5 -37.5q0 -35 -31 -35h-459q-47 0 -47 57zM471 1239l211 354l180 -118l-252 -326z" />
<glyph unicode="&#x147;" horiz-adv-x="1660" d="M104 61q0 43 31 64.5t84 21.5h35v1117l-41 10q-61 14 -85 36.5t-24 61.5q0 27 11.5 39t27.5 12h346l596 -858q66 -96 125 -250v961h-116q-25 0 -38.5 16.5t-13.5 44.5q0 43 31 64.5t82 21.5h375q33 0 33 -34q0 -41 -88 -80l-74 -33v-1276h-236l-618 893q-31 45 -53.5 91 t-49.5 122v-959l103 -34q43 -14 60.5 -32t17.5 -46q0 -35 -33 -35h-436q-25 0 -38.5 16.5t-13.5 44.5zM518 1855l107 95l194 -219l195 219l106 -95l-241 -313h-117z" />
<glyph unicode="&#x148;" horiz-adv-x="1333" d="M84 57q0 82 109 82h32v727h-94q-47 0 -47 58q0 41 28.5 61.5t80.5 20.5h262v-132h6q170 152 348 152q147 0 242.5 -85t95.5 -232v-570l80 -33q41 -18 57 -33.5t16 -37.5q0 -35 -30 -35h-459q-47 0 -47 57q0 82 108 82h35v549q0 86 -45 134t-133 48q-68 0 -137.5 -37.5 t-126.5 -99.5v-594l82 -33q41 -18 57.5 -33.5t16.5 -37.5q0 -35 -31 -35h-459q-47 0 -47 57zM383 1462l106 94l195 -219l195 219l106 -94l-242 -313h-116z" />
<glyph unicode="&#x152;" horiz-adv-x="2285" d="M88 715q0 236 95.5 402.5t254 250.5t346.5 84q51 0 115 -8t113 -21h1116v-319q0 -20 -9.5 -30.5t-31.5 -10.5q-27 0 -46.5 29.5t-37.5 93.5l-23 78h-618v-457h493l33 80q16 37 28.5 53t31.5 16q37 0 37 -36v-383q0 -37 -37 -37q-18 0 -31.5 16t-30.5 53l-31 80h-493v-489 h649l23 80q20 66 38.5 94t45.5 28q41 0 41 -40v-322h-1000q-172 -29 -297 -29q-219 0 -393 77t-277.5 244t-103.5 423zM348 715q0 -186 64.5 -316.5t176 -197t253.5 -66.5q80 0 138 6t126 23v1093q-117 31 -240 31q-233 0 -375.5 -141t-142.5 -432z" />
<glyph unicode="&#x153;" horiz-adv-x="1863" d="M68 500q0 172 66.5 289.5t181 177t257.5 59.5q119 0 219.5 -54t168.5 -153q66 98 164 152.5t216 54.5q135 0 238.5 -53t162 -151.5t58.5 -229.5q0 -37 -10 -82t-27 -76h-682q2 -154 88 -234.5t209 -80.5q72 0 126.5 17.5t121.5 56.5q8 4 27.5 15t32.5 11q27 0 45 -20.5 t18 -51.5q0 -29 -18.5 -51t-59.5 -47q-135 -78 -305 -78q-125 0 -230.5 55.5t-174.5 153.5q-66 -100 -167.5 -154.5t-220.5 -54.5q-143 0 -257.5 59.5t-181 178.5t-66.5 291zM309 500q0 -184 68.5 -282.5t195.5 -98.5t196 98t69 283q0 182 -69 280.5t-196 98.5t-195.5 -98.5 t-68.5 -280.5zM1081 582h469q10 27 11 61q0 111 -59.5 173.5t-162.5 62.5q-106 0 -177.5 -80t-80.5 -217z" />
<glyph unicode="&#x158;" horiz-adv-x="1458" d="M104 1372q0 51 39 51h643q227 0 359.5 -104.5t132.5 -300.5q0 -186 -122 -286.5t-337 -108.5l430 -482l99 -28q45 -14 64.5 -32t19.5 -44q0 -37 -35 -37h-369l-512 618v-471l86 -32q41 -16 59.5 -35t18.5 -45q0 -16 -7 -25.5t-28 -9.5h-483q-25 0 -38 16.5t-13 44.5 q0 43 30.5 64.5t83.5 21.5h35v1125l-41 10q-59 14 -87 34.5t-28 55.5zM356 1855l107 95l194 -219l195 219l106 -95l-241 -313h-117zM516 768h250q121 0 188.5 65.5t67.5 184.5t-67.5 185.5t-188.5 66.5h-250v-502z" />
<glyph unicode="&#x159;" horiz-adv-x="946" d="M84 57q0 82 109 82h32v727h-94q-47 0 -47 58q0 41 28.5 61.5t80.5 20.5h262v-207h6q74 96 168 161.5t180 65.5q59 0 92 -32.5t33 -84.5q0 -31 -11.5 -60.5t-29.5 -47.5q-236 0 -428 -156v-506l82 -33q41 -18 57.5 -33.5t16.5 -37.5q0 -35 -31 -35h-459q-47 0 -47 57z M178 1462l107 94l194 -219l195 219l106 -94l-241 -313h-117z" />
<glyph unicode="&#x15a;" horiz-adv-x="1224" d="M92 98v312q0 18 10.5 30.5t32.5 12.5q33 0 52.5 -26t41.5 -99l35 -121q47 -33 133 -52.5t172 -19.5q129 0 218.5 46t89.5 147q0 68 -32 113.5t-101.5 86.5t-206.5 101q-211 92 -325 192.5t-114 257.5q0 125 67.5 209t179.5 124t241 40q133 0 261 -40t212 -105v-289 q0 -43 -43 -43q-33 0 -52.5 24.5t-41.5 98.5l-35 121q-104 70 -281 69q-113 0 -182.5 -44t-69.5 -134q0 -59 38 -102t103.5 -79t196.5 -95l53 -25q127 -59 209 -115.5t130.5 -139.5t48.5 -200q0 -193 -149.5 -288t-389.5 -95q-125 0 -270.5 36t-231.5 91zM414 1632l211 355 l180 -119l-252 -326z" />
<glyph unicode="&#x15b;" horiz-adv-x="944" d="M74 82v221q0 16 11 28.5t34 12.5q57 0 78 -80l20 -88q33 -25 94.5 -40t126.5 -15q193 0 193 108q0 41 -24.5 69t-67.5 50.5t-170 81.5q-158 74 -224.5 142.5t-66.5 175.5q0 131 108.5 204.5t270.5 73.5q111 0 212 -38t158 -87v-211q0 -16 -11 -26.5t-34 -10.5 q-31 0 -49 19.5t-28 58.5l-23 92q-35 25 -85 39.5t-108 14.5q-76 0 -124 -27t-48 -84q0 -35 19.5 -59.5t58.5 -47t129 -65.5l68 -33q152 -74 215 -140.5t63 -176.5q0 -141 -117.5 -207t-291.5 -66q-109 0 -218.5 33t-168.5 78zM328 1239l211 354l180 -118l-252 -326z" />
<glyph unicode="&#x15c;" horiz-adv-x="1224" d="M92 98v312q0 18 10.5 30.5t32.5 12.5q33 0 52.5 -26t41.5 -99l35 -121q47 -33 133 -52.5t172 -19.5q129 0 218.5 46t89.5 147q0 68 -32 113.5t-101.5 86.5t-206.5 101q-211 92 -325 192.5t-114 257.5q0 125 67.5 209t179.5 124t241 40q133 0 261 -40t212 -105v-289 q0 -43 -43 -43q-33 0 -52.5 24.5t-41.5 98.5l-35 121q-104 70 -281 69q-113 0 -182.5 -44t-69.5 -134q0 -59 38 -102t103.5 -79t196.5 -95l53 -25q127 -59 209 -115.5t130.5 -139.5t48.5 -200q0 -193 -149.5 -288t-389.5 -95q-125 0 -270.5 36t-231.5 91zM276 1634l244 316 h117l242 -316l-107 -92l-194 219l-195 -219z" />
<glyph unicode="&#x15d;" horiz-adv-x="944" d="M74 82v221q0 16 11 28.5t34 12.5q57 0 78 -80l20 -88q33 -25 94.5 -40t126.5 -15q193 0 193 108q0 41 -24.5 69t-67.5 50.5t-170 81.5q-158 74 -224.5 142.5t-66.5 175.5q0 131 108.5 204.5t270.5 73.5q111 0 212 -38t158 -87v-211q0 -16 -11 -26.5t-34 -10.5 q-31 0 -49 19.5t-28 58.5l-23 92q-35 25 -85 39.5t-108 14.5q-76 0 -124 -27t-48 -84q0 -35 19.5 -59.5t58.5 -47t129 -65.5l68 -33q152 -74 215 -140.5t63 -176.5q0 -141 -117.5 -207t-291.5 -66q-109 0 -218.5 33t-168.5 78zM156 1221l243 315h117l242 -315l-107 -93 l-194 220l-195 -220z" />
<glyph unicode="&#x160;" horiz-adv-x="1224" d="M92 98v312q0 18 10.5 30.5t32.5 12.5q33 0 52.5 -26t41.5 -99l35 -121q47 -33 133 -52.5t172 -19.5q129 0 218.5 46t89.5 147q0 68 -32 113.5t-101.5 86.5t-206.5 101q-211 92 -325 192.5t-114 257.5q0 125 67.5 209t179.5 124t241 40q133 0 261 -40t212 -105v-289 q0 -43 -43 -43q-33 0 -52.5 24.5t-41.5 98.5l-35 121q-104 70 -281 69q-113 0 -182.5 -44t-69.5 -134q0 -59 38 -102t103.5 -79t196.5 -95l53 -25q127 -59 209 -115.5t130.5 -139.5t48.5 -200q0 -193 -149.5 -288t-389.5 -95q-125 0 -270.5 36t-231.5 91zM287 1855l106 95 l195 -219l194 219l107 -95l-242 -313h-117z" />
<glyph unicode="&#x161;" horiz-adv-x="944" d="M74 82v221q0 16 11 28.5t34 12.5q57 0 78 -80l20 -88q33 -25 94.5 -40t126.5 -15q193 0 193 108q0 41 -24.5 69t-67.5 50.5t-170 81.5q-158 74 -224.5 142.5t-66.5 175.5q0 131 108.5 204.5t270.5 73.5q111 0 212 -38t158 -87v-211q0 -16 -11 -26.5t-34 -10.5 q-31 0 -49 19.5t-28 58.5l-23 92q-35 25 -85 39.5t-108 14.5q-76 0 -124 -27t-48 -84q0 -35 19.5 -59.5t58.5 -47t129 -65.5l68 -33q152 -74 215 -140.5t63 -176.5q0 -141 -117.5 -207t-291.5 -66q-109 0 -218.5 33t-168.5 78zM156 1462l106 94l195 -219l194 219l107 -94 l-242 -313h-117z" />
<glyph unicode="&#x164;" horiz-adv-x="1294" d="M53 1100v323h1188v-323q0 -25 -13.5 -36t-33.5 -11q-31 0 -48.5 25.5t-33.5 80.5l-27 101h-309v-1113l86 -32q41 -16 59.5 -35t18.5 -45q0 -16 -7 -25.5t-28 -9.5h-483q-25 0 -38 16.5t-13 44.5q0 43 30.5 64.5t83.5 21.5h35v1113h-311l-27 -101q-16 -55 -32.5 -80.5 t-47.5 -25.5q-20 0 -34.5 11t-14.5 36zM346 1855l107 95l194 -219l195 219l106 -95l-241 -313h-117z" />
<glyph unicode="&#x165;" horiz-adv-x="933" d="M59 909q0 43 30 65.5t79 22.5h86l37 230h198v-230h316q14 0 23.5 -8t9.5 -22q0 -33 -26 -50.5t-85 -29.5l-238 -39v-604q0 -61 32 -92t87 -31q66 0 123 45q6 4 21.5 17.5t33.5 13.5q27 0 44.5 -17.5t17.5 -46.5q0 -51 -80 -102q-94 -59 -213 -60q-131 0 -218 76t-87 211 v590h-139q-25 0 -38.5 16.5t-13.5 44.5zM651 1130q33 45 63.5 113t37.5 107l-47 16q-27 6 -27 33q0 51 55 51q16 0 27 -2l153 -33q-20 -78 -69 -174t-109 -164z" />
<glyph unicode="&#x16c;" horiz-adv-x="1652" d="M74 1337q0 43 30.5 64.5t81.5 21.5h422q20 0 27.5 -9t7.5 -25q0 -27 -18.5 -45.5t-59.5 -34.5l-86 -33v-754q0 -188 98.5 -287.5t272.5 -99.5q176 0 276.5 100.5t100.5 286.5v754h-115q-25 0 -38 16.5t-13 44.5q0 43 30.5 64.5t82.5 21.5h372q18 0 25.5 -7t7.5 -25 q0 -39 -72 -74l-80 -39v-729q0 -188 -74.5 -317.5t-207.5 -195t-307 -65.5q-179 0 -318 66.5t-218 197t-79 314.5v727h-98q-25 0 -38 16.5t-13 44.5zM510 1806l133 47q25 -76 79 -117.5t126 -41.5t125 42t80 117l131 -47q-39 -141 -129 -208.5t-207 -67.5t-208 67.5 t-130 208.5z" />
<glyph unicode="&#x16d;" horiz-adv-x="1290" d="M37 924q0 41 28.5 61.5t79.5 20.5h273v-697q0 -86 45 -134t133 -48q68 0 136.5 38t125.5 99v602h-94q-47 0 -47 58q0 41 28.5 61.5t79.5 20.5h273v-867l76 -33q41 -18 57 -32.5t16 -38.5q0 -35 -30 -35h-347v123h-8q-170 -152 -346 -152q-147 0 -242.5 85t-95.5 233v577 h-94q-47 0 -47 58zM274 1403l134 47q25 -76 79 -118t125 -42q72 0 125.5 42t79.5 118l131 -47q-39 -141 -129 -209t-207 -68q-116 0 -207.5 68t-130.5 209z" />
<glyph unicode="&#x16e;" horiz-adv-x="1652" d="M74 1337q0 43 30.5 64.5t81.5 21.5h422q20 0 27.5 -9t7.5 -25q0 -27 -18.5 -45.5t-59.5 -34.5l-86 -33v-754q0 -188 98.5 -287.5t272.5 -99.5q176 0 276.5 100.5t100.5 286.5v754h-115q-25 0 -38 16.5t-13 44.5q0 43 30.5 64.5t82.5 21.5h372q18 0 25.5 -7t7.5 -25 q0 -39 -72 -74l-80 -39v-729q0 -188 -74.5 -317.5t-207.5 -195t-307 -65.5q-179 0 -318 66.5t-218 197t-79 314.5v727h-98q-25 0 -38 16.5t-13 44.5zM610 1743q0 88 61.5 147.5t162.5 59.5q98 0 159.5 -60.5t61.5 -146.5q0 -88 -61.5 -148.5t-159.5 -60.5 q-101 0 -162.5 60.5t-61.5 148.5zM745 1743q0 -43 25 -67.5t64 -24.5q38 0 64 24.5t26 67.5t-26 66.5t-64 23.5q-39 0 -64 -23.5t-25 -66.5z" />
<glyph unicode="&#x16f;" horiz-adv-x="1290" d="M37 924q0 41 28.5 61.5t79.5 20.5h273v-697q0 -86 45 -134t133 -48q68 0 136.5 38t125.5 99v602h-94q-47 0 -47 58q0 41 28.5 61.5t79.5 20.5h273v-867l76 -33q41 -18 57 -32.5t16 -38.5q0 -35 -30 -35h-347v123h-8q-170 -152 -346 -152q-147 0 -242.5 85t-95.5 233v577 h-94q-47 0 -47 58zM393 1376q0 88 61.5 147.5t161.5 59.5q98 0 160 -60.5t62 -146.5q0 -88 -61.5 -148.5t-160.5 -60.5q-100 0 -161.5 60.5t-61.5 148.5zM528 1376q0 -43 25 -67.5t63 -24.5q39 0 65 24.5t26 67.5t-26 66.5t-65 23.5t-63.5 -23.5t-24.5 -66.5z" />
<glyph unicode="&#x178;" horiz-adv-x="1472" d="M10 1337q0 43 31 64.5t82 21.5h487q35 0 35 -39q0 -33 -21.5 -51t-62.5 -30l-96 -27l307 -485l322 485h-103q-49 0 -49 61q0 43 31 64.5t82 21.5h375q33 0 32 -34q0 -47 -67 -74l-103 -39l-438 -658v-471l88 -32q41 -16 59.5 -35t18.5 -45q0 -16 -7 -25.5t-28 -9.5h-483 q-25 0 -38 16.5t-13 44.5q0 43 30.5 64.5t83.5 21.5h33v439l-440 690h-97q-25 0 -38 16.5t-13 44.5zM383 1694q0 55 38 92t91 37t90 -37t37 -92t-37 -92t-90 -37t-91 36.5t-38 92.5zM803 1694q0 55 38 92t91 37t90 -37t37 -92t-37 -92t-90 -37t-91 36.5t-38 92.5z" />
<glyph unicode="&#x179;" horiz-adv-x="1304" d="M86 0v170l795 1090h-607l-26 -107q-12 -55 -30.5 -82t-49.5 -27q-49 0 -49 48v331h1073v-170l-793 -1089h660l26 108q12 53 31 80t49 27q20 0 34.5 -11.5t14.5 -35.5v-332h-1128zM492 1632l210 355l181 -119l-252 -326z" />
<glyph unicode="&#x17a;" horiz-adv-x="948" d="M72 0v168l506 690h-340l-21 -90q-10 -41 -26.5 -60.5t-49.5 -19.5q-23 0 -34 12.5t-11 30.5v275h760v-168l-506 -691h383l21 91q10 41 27.5 60t47.5 19q23 0 35.5 -12t12.5 -29v-276h-805zM317 1239l211 354l181 -118l-252 -326z" />
<glyph unicode="&#x17b;" horiz-adv-x="1304" d="M86 0v170l795 1090h-607l-26 -107q-12 -55 -30.5 -82t-49.5 -27q-49 0 -49 48v331h1073v-170l-793 -1089h660l26 108q12 53 31 80t49 27q20 0 34.5 -11.5t14.5 -35.5v-332h-1128zM539 1708q0 55 37.5 92t91.5 37q53 0 91 -37t38 -92t-38 -93t-91 -38q-54 0 -91.5 38 t-37.5 93z" />
<glyph unicode="&#x17c;" horiz-adv-x="948" d="M72 0v168l506 690h-340l-21 -90q-10 -41 -26.5 -60.5t-49.5 -19.5q-23 0 -34 12.5t-11 30.5v275h760v-168l-506 -691h383l21 91q10 41 27.5 60t47.5 19q23 0 35.5 -12t12.5 -29v-276h-805zM356 1266q0 55 38 92t91 37t91 -37t38 -92t-37.5 -93t-91.5 -38q-53 0 -91 37.5 t-38 93.5z" />
<glyph unicode="&#x17d;" horiz-adv-x="1304" d="M86 0v170l795 1090h-607l-26 -107q-12 -55 -30.5 -82t-49.5 -27q-49 0 -49 48v331h1073v-170l-793 -1089h660l26 108q12 53 31 80t49 27q20 0 34.5 -11.5t14.5 -35.5v-332h-1128zM369 1855l106 95l195 -219l194 219l107 -95l-242 -313h-117z" />
<glyph unicode="&#x17e;" horiz-adv-x="948" d="M72 0v168l506 690h-340l-21 -90q-10 -41 -26.5 -60.5t-49.5 -19.5q-23 0 -34 12.5t-11 30.5v275h760v-168l-506 -691h383l21 91q10 41 27.5 60t47.5 19q23 0 35.5 -12t12.5 -29v-276h-805zM182 1462l107 94l194 -219l195 219l106 -94l-241 -313h-117z" />
<glyph unicode="&#x2c6;" horiz-adv-x="884" d="M141 1194l244 315h117l241 -315l-106 -92l-195 219l-194 -219z" />
<glyph unicode="&#x2da;" horiz-adv-x="843" d="M201 1329q0 88 61.5 147.5t161.5 59.5q98 0 159.5 -60.5t61.5 -146.5q0 -88 -61.5 -148.5t-159.5 -60.5q-100 0 -161.5 60.5t-61.5 148.5zM334 1329q0 -43 24.5 -67.5t63.5 -24.5t64.5 24.5t25.5 67.5t-25.5 66.5t-64.5 23.5t-63.5 -23.5t-24.5 -66.5z" />
<glyph unicode="&#x2dc;" horiz-adv-x="843" d="M84 1274q49 45 106.5 73.5t106.5 28.5q31 0 58.5 -10t72.5 -31q47 -20 71.5 -29.5t53.5 -9.5q57 0 125 52l82 -117q-49 -49 -102.5 -76t-102.5 -27q-33 0 -63.5 10.5t-69.5 30.5q-39 18 -66.5 28.5t-58.5 10.5q-37 0 -65.5 -12t-65.5 -39z" />
<glyph unicode="&#x2000;" horiz-adv-x="994" />
<glyph unicode="&#x2001;" horiz-adv-x="1989" />
<glyph unicode="&#x2002;" horiz-adv-x="994" />
<glyph unicode="&#x2003;" horiz-adv-x="1989" />
<glyph unicode="&#x2004;" horiz-adv-x="663" />
<glyph unicode="&#x2005;" horiz-adv-x="497" />
<glyph unicode="&#x2006;" horiz-adv-x="331" />
<glyph unicode="&#x2007;" horiz-adv-x="331" />
<glyph unicode="&#x2008;" horiz-adv-x="248" />
<glyph unicode="&#x2009;" horiz-adv-x="397" />
<glyph unicode="&#x200a;" horiz-adv-x="110" />
<glyph unicode="&#x2010;" horiz-adv-x="694" d="M39 528v199h616v-199h-616z" />
<glyph unicode="&#x2011;" horiz-adv-x="694" d="M39 528v199h616v-199h-616z" />
<glyph unicode="&#x2012;" horiz-adv-x="694" d="M39 528v199h616v-199h-616z" />
<glyph unicode="&#x2013;" horiz-adv-x="1001" d="M12 524v197h977v-197h-977z" />
<glyph unicode="&#x2014;" horiz-adv-x="1800" d="M12 524v197h1776v-197h-1776z" />
<glyph unicode="&#x2018;" horiz-adv-x="616" d="M119 983q29 113 107.5 265.5t160.5 242.5l113 -68q-39 -57 -89.5 -175t-62.5 -189l76 -25q41 -12 41 -53q0 -37 -23.5 -58.5t-60.5 -21.5q-23 0 -49 10z" />
<glyph unicode="&#x2019;" horiz-adv-x="616" d="M119 954q39 61 89 178t60 189l-75 25q-41 14 -41 53q0 37 23.5 57.5t62.5 20.5q27 0 49 -9l213 -71q-29 -113 -109 -266.5t-162 -243.5z" />
<glyph unicode="&#x201a;" horiz-adv-x="636" d="M127 -250q49 70 96 172.5t53 163.5l-65 20q-20 8 -30.5 20.5t-10.5 33.5q0 37 22.5 58.5t61.5 21.5q10 0 35 -4l235 -54q-29 -115 -103.5 -262t-166.5 -248z" />
<glyph unicode="&#x201c;" horiz-adv-x="1040" d="M119 983q29 113 107.5 265.5t160.5 242.5l113 -68q-39 -57 -89.5 -175t-62.5 -189l76 -25q41 -12 41 -53q0 -37 -23.5 -58.5t-60.5 -21.5q-23 0 -49 10zM543 983q29 113 107.5 265.5t160.5 242.5l113 -68q-39 -57 -89.5 -175t-62.5 -189l76 -25q41 -12 41 -53 q0 -37 -23.5 -58.5t-60.5 -21.5q-23 0 -49 10z" />
<glyph unicode="&#x201d;" horiz-adv-x="1040" d="M119 954q39 61 89 178t60 189l-75 25q-41 14 -41 53q0 37 23.5 57.5t62.5 20.5q27 0 49 -9l213 -71q-29 -113 -109 -266.5t-162 -243.5zM543 954q39 61 89 178t60 189l-76 25q-41 14 -41 53q0 37 24 57.5t63 20.5q27 0 49 -9l213 -71q-29 -113 -109 -266.5t-162 -243.5z " />
<glyph unicode="&#x201e;" horiz-adv-x="1071" d="M127 -250q49 70 96 172.5t53 163.5l-65 20q-20 8 -30.5 20.5t-10.5 33.5q0 37 22.5 58.5t61.5 21.5q10 0 35 -4l235 -54q-29 -115 -103.5 -262t-166.5 -248zM559 -250q49 70 96 172.5t54 163.5l-66 20q-20 8 -30.5 20.5t-10.5 33.5q0 37 22.5 58.5t61.5 21.5q10 0 35 -4 l235 -54q-29 -115 -103.5 -262t-166.5 -248z" />
<glyph unicode="&#x2022;" horiz-adv-x="862" d="M176 578q0 109 73 181t179 72q111 0 184.5 -72.5t73.5 -180.5q0 -113 -73.5 -184.5t-184.5 -71.5q-106 0 -179 71.5t-73 184.5z" />
<glyph unicode="&#x2026;" horiz-adv-x="1568" d="M145 117q0 63 42 104t104 41q61 0 102 -41t41 -104q0 -61 -41 -103.5t-102 -42.5q-62 0 -104 41t-42 105zM639 117q0 63 42 104t103 41t102.5 -41t41.5 -104q0 -61 -41 -103.5t-103 -42.5q-61 0 -103 41t-42 105zM1135 117q0 63 42 104t103 41t102 -41t41 -104 q0 -61 -41 -103.5t-102 -42.5t-103 41t-42 105z" />
<glyph unicode="&#x202f;" horiz-adv-x="397" />
<glyph unicode="&#x2039;" horiz-adv-x="729" d="M125 459v53l313 371l146 -115l-211 -283l211 -282l-146 -115z" />
<glyph unicode="&#x203a;" horiz-adv-x="729" d="M145 203l211 282l-211 283l146 115l313 -371v-53l-313 -371z" />
<glyph unicode="&#x205f;" horiz-adv-x="497" />
<glyph unicode="&#x20ac;" horiz-adv-x="1394" d="M37 420v162h950v-162h-498q55 -141 166 -215t258 -74q174 0 301 78q10 6 33 20.5t37 14.5q27 0 47.5 -20.5t20.5 -51.5q0 -33 -18.5 -55.5t-51.5 -44.5q-61 -41 -163.5 -71t-237.5 -30q-232 0 -409 116t-249 333h-186zM37 750v161h170q39 166 135 281t230.5 173t285.5 58 q152 0 272.5 -42t202.5 -109v-266q0 -47 -43 -48q-33 0 -50 24t-34 79l-37 137q-45 29 -115.5 47.5t-152.5 18.5q-164 0 -279.5 -90.5t-158.5 -262.5h524v-161h-950z" />
<glyph unicode="&#x2122;" horiz-adv-x="1304" d="M16 1292v131h461v-131q0 -16 -9 -24t-22 -8q-35 0 -45 47l-6 28h-88v-362l27 -8q35 -10 35 -41q0 -23 -21 -23h-201q-28 0 -28 31q0 43 49 43h18v360h-88l-8 -28q-8 -25 -16 -36t-27 -11q-31 0 -31 32zM467 936q0 20 12.5 32.5t32.5 12.5h14l68 358l-23 9q-37 12 -36 43 q0 16 9 24t23 8h187l104 -391l96 391h191q10 0 20.5 -8t10.5 -24q0 -35 -39 -45l-21 -7l76 -362l29 -10q33 -10 32 -41q0 -25 -30 -25h-187q-33 0 -32 35q0 20 12 32.5t33 12.5h20l-51 289h-6l-101 -369h-127l-102 367h-6l-51 -293l45 -10q37 -8 37 -39q0 -25 -23 -25h-182 q-35 0 -35 35z" />
<glyph unicode="&#x25fc;" horiz-adv-x="1003" d="M0 0v1004h1004v-1004h-1004z" />
</font>
</defs>
</svg>
